<mxfile host="app.diagrams.net" modified="2023-04-01T22:49:56.960Z" agent="Mozilla/5.0 (Windows NT 10.0; Win64; x64) AppleWebKit/537.36 (KHTML, like Gecko) Chrome/111.0.0.0 Safari/537.36 Edg/111.0.1661.62" etag="4O1HJyPkMxWMqCf6hluU" version="21.1.1" type="device">
  <diagram id="R2lEEEUBdFMjLlhIrx00" name="Page-1">
    <mxGraphModel dx="2412" dy="1937" grid="1" gridSize="10" guides="1" tooltips="1" connect="1" arrows="1" fold="1" page="1" pageScale="1" pageWidth="850" pageHeight="1100" math="0" shadow="0" extFonts="Permanent Marker^https://fonts.googleapis.com/css?family=Permanent+Marker">
      <root>
        <mxCell id="0" />
        <mxCell id="1" parent="0" />
        <mxCell id="zLAtPKruSv_M1IxSRYuG-14" value="User" style="shape=table;startSize=30;container=1;collapsible=1;childLayout=tableLayout;fixedRows=1;rowLines=0;fontStyle=1;align=center;resizeLast=1;html=1;fillColor=#f8cecc;strokeColor=#b85450;" parent="1" vertex="1">
          <mxGeometry x="-119.99999999999997" y="240" width="180" height="140" as="geometry" />
        </mxCell>
        <mxCell id="zLAtPKruSv_M1IxSRYuG-15" value="" style="shape=tableRow;horizontal=0;startSize=0;swimlaneHead=0;swimlaneBody=0;fillColor=none;collapsible=0;dropTarget=0;points=[[0,0.5],[1,0.5]];portConstraint=eastwest;top=0;left=0;right=0;bottom=1;" parent="zLAtPKruSv_M1IxSRYuG-14" vertex="1">
          <mxGeometry y="30" width="180" height="50" as="geometry" />
        </mxCell>
        <mxCell id="zLAtPKruSv_M1IxSRYuG-16" value="PK" style="shape=partialRectangle;connectable=0;fillColor=none;top=0;left=0;bottom=0;right=0;fontStyle=1;overflow=hidden;whiteSpace=wrap;html=1;" parent="zLAtPKruSv_M1IxSRYuG-15" vertex="1">
          <mxGeometry width="30" height="50" as="geometry">
            <mxRectangle width="30" height="50" as="alternateBounds" />
          </mxGeometry>
        </mxCell>
        <mxCell id="zLAtPKruSv_M1IxSRYuG-17" value="user_id" style="shape=partialRectangle;connectable=0;fillColor=none;top=0;left=0;bottom=0;right=0;align=left;spacingLeft=6;fontStyle=5;overflow=hidden;whiteSpace=wrap;html=1;" parent="zLAtPKruSv_M1IxSRYuG-15" vertex="1">
          <mxGeometry x="30" width="150" height="50" as="geometry">
            <mxRectangle width="150" height="50" as="alternateBounds" />
          </mxGeometry>
        </mxCell>
        <mxCell id="zLAtPKruSv_M1IxSRYuG-196" value="" style="shape=tableRow;horizontal=0;startSize=0;swimlaneHead=0;swimlaneBody=0;fillColor=none;collapsible=0;dropTarget=0;points=[[0,0.5],[1,0.5]];portConstraint=eastwest;top=0;left=0;right=0;bottom=0;" parent="zLAtPKruSv_M1IxSRYuG-14" vertex="1">
          <mxGeometry y="80" width="180" height="30" as="geometry" />
        </mxCell>
        <mxCell id="zLAtPKruSv_M1IxSRYuG-197" value="" style="shape=partialRectangle;connectable=0;fillColor=none;top=0;left=0;bottom=0;right=0;editable=1;overflow=hidden;" parent="zLAtPKruSv_M1IxSRYuG-196" vertex="1">
          <mxGeometry width="30" height="30" as="geometry">
            <mxRectangle width="30" height="30" as="alternateBounds" />
          </mxGeometry>
        </mxCell>
        <mxCell id="zLAtPKruSv_M1IxSRYuG-198" value="email" style="shape=partialRectangle;connectable=0;fillColor=none;top=0;left=0;bottom=0;right=0;align=left;spacingLeft=6;overflow=hidden;" parent="zLAtPKruSv_M1IxSRYuG-196" vertex="1">
          <mxGeometry x="30" width="150" height="30" as="geometry">
            <mxRectangle width="150" height="30" as="alternateBounds" />
          </mxGeometry>
        </mxCell>
        <mxCell id="zLAtPKruSv_M1IxSRYuG-193" value="" style="shape=tableRow;horizontal=0;startSize=0;swimlaneHead=0;swimlaneBody=0;fillColor=none;collapsible=0;dropTarget=0;points=[[0,0.5],[1,0.5]];portConstraint=eastwest;top=0;left=0;right=0;bottom=0;" parent="zLAtPKruSv_M1IxSRYuG-14" vertex="1">
          <mxGeometry y="110" width="180" height="30" as="geometry" />
        </mxCell>
        <mxCell id="zLAtPKruSv_M1IxSRYuG-194" value="" style="shape=partialRectangle;connectable=0;fillColor=none;top=0;left=0;bottom=0;right=0;editable=1;overflow=hidden;" parent="zLAtPKruSv_M1IxSRYuG-193" vertex="1">
          <mxGeometry width="30" height="30" as="geometry">
            <mxRectangle width="30" height="30" as="alternateBounds" />
          </mxGeometry>
        </mxCell>
        <mxCell id="zLAtPKruSv_M1IxSRYuG-195" value="password" style="shape=partialRectangle;connectable=0;fillColor=none;top=0;left=0;bottom=0;right=0;align=left;spacingLeft=6;overflow=hidden;" parent="zLAtPKruSv_M1IxSRYuG-193" vertex="1">
          <mxGeometry x="30" width="150" height="30" as="geometry">
            <mxRectangle width="150" height="30" as="alternateBounds" />
          </mxGeometry>
        </mxCell>
        <mxCell id="zLAtPKruSv_M1IxSRYuG-66" value="Reccomend" style="shape=table;startSize=30;container=1;collapsible=1;childLayout=tableLayout;fixedRows=1;rowLines=0;fontStyle=1;align=center;resizeLast=1;html=1;" parent="1" vertex="1">
          <mxGeometry x="-450" y="240" width="180" height="180" as="geometry" />
        </mxCell>
        <mxCell id="zLAtPKruSv_M1IxSRYuG-67" value="" style="shape=tableRow;horizontal=0;startSize=0;swimlaneHead=0;swimlaneBody=0;fillColor=none;collapsible=0;dropTarget=0;points=[[0,0.5],[1,0.5]];portConstraint=eastwest;top=0;left=0;right=0;bottom=1;" parent="zLAtPKruSv_M1IxSRYuG-66" vertex="1">
          <mxGeometry y="30" width="180" height="30" as="geometry" />
        </mxCell>
        <mxCell id="zLAtPKruSv_M1IxSRYuG-68" value="PK" style="shape=partialRectangle;connectable=0;fillColor=none;top=0;left=0;bottom=0;right=0;fontStyle=1;overflow=hidden;whiteSpace=wrap;html=1;" parent="zLAtPKruSv_M1IxSRYuG-67" vertex="1">
          <mxGeometry width="30" height="30" as="geometry">
            <mxRectangle width="30" height="30" as="alternateBounds" />
          </mxGeometry>
        </mxCell>
        <mxCell id="zLAtPKruSv_M1IxSRYuG-69" value="reccomend_id" style="shape=partialRectangle;connectable=0;fillColor=none;top=0;left=0;bottom=0;right=0;align=left;spacingLeft=6;fontStyle=5;overflow=hidden;whiteSpace=wrap;html=1;" parent="zLAtPKruSv_M1IxSRYuG-67" vertex="1">
          <mxGeometry x="30" width="150" height="30" as="geometry">
            <mxRectangle width="150" height="30" as="alternateBounds" />
          </mxGeometry>
        </mxCell>
        <mxCell id="zLAtPKruSv_M1IxSRYuG-70" value="" style="shape=tableRow;horizontal=0;startSize=0;swimlaneHead=0;swimlaneBody=0;fillColor=none;collapsible=0;dropTarget=0;points=[[0,0.5],[1,0.5]];portConstraint=eastwest;top=0;left=0;right=0;bottom=0;" parent="zLAtPKruSv_M1IxSRYuG-66" vertex="1">
          <mxGeometry y="60" width="180" height="30" as="geometry" />
        </mxCell>
        <mxCell id="zLAtPKruSv_M1IxSRYuG-71" value="FK" style="shape=partialRectangle;connectable=0;fillColor=none;top=0;left=0;bottom=0;right=0;editable=1;overflow=hidden;whiteSpace=wrap;html=1;fontStyle=1" parent="zLAtPKruSv_M1IxSRYuG-70" vertex="1">
          <mxGeometry width="30" height="30" as="geometry">
            <mxRectangle width="30" height="30" as="alternateBounds" />
          </mxGeometry>
        </mxCell>
        <mxCell id="zLAtPKruSv_M1IxSRYuG-72" value="user_id" style="shape=partialRectangle;connectable=0;fillColor=none;top=0;left=0;bottom=0;right=0;align=left;spacingLeft=6;overflow=hidden;whiteSpace=wrap;html=1;fontStyle=1" parent="zLAtPKruSv_M1IxSRYuG-70" vertex="1">
          <mxGeometry x="30" width="150" height="30" as="geometry">
            <mxRectangle width="150" height="30" as="alternateBounds" />
          </mxGeometry>
        </mxCell>
        <mxCell id="zLAtPKruSv_M1IxSRYuG-73" value="" style="shape=tableRow;horizontal=0;startSize=0;swimlaneHead=0;swimlaneBody=0;fillColor=none;collapsible=0;dropTarget=0;points=[[0,0.5],[1,0.5]];portConstraint=eastwest;top=0;left=0;right=0;bottom=0;" parent="zLAtPKruSv_M1IxSRYuG-66" vertex="1">
          <mxGeometry y="90" width="180" height="30" as="geometry" />
        </mxCell>
        <mxCell id="zLAtPKruSv_M1IxSRYuG-74" value="FK" style="shape=partialRectangle;connectable=0;fillColor=none;top=0;left=0;bottom=0;right=0;editable=1;overflow=hidden;whiteSpace=wrap;html=1;fontStyle=1" parent="zLAtPKruSv_M1IxSRYuG-73" vertex="1">
          <mxGeometry width="30" height="30" as="geometry">
            <mxRectangle width="30" height="30" as="alternateBounds" />
          </mxGeometry>
        </mxCell>
        <mxCell id="zLAtPKruSv_M1IxSRYuG-75" value="entity_id" style="shape=partialRectangle;connectable=0;fillColor=none;top=0;left=0;bottom=0;right=0;align=left;spacingLeft=6;overflow=hidden;whiteSpace=wrap;html=1;fontStyle=1" parent="zLAtPKruSv_M1IxSRYuG-73" vertex="1">
          <mxGeometry x="30" width="150" height="30" as="geometry">
            <mxRectangle width="150" height="30" as="alternateBounds" />
          </mxGeometry>
        </mxCell>
        <mxCell id="D5SYm8FrXGjHPreOWiLi-17" value="" style="shape=tableRow;horizontal=0;startSize=0;swimlaneHead=0;swimlaneBody=0;fillColor=none;collapsible=0;dropTarget=0;points=[[0,0.5],[1,0.5]];portConstraint=eastwest;top=0;left=0;right=0;bottom=0;" vertex="1" parent="zLAtPKruSv_M1IxSRYuG-66">
          <mxGeometry y="120" width="180" height="30" as="geometry" />
        </mxCell>
        <mxCell id="D5SYm8FrXGjHPreOWiLi-18" value="" style="shape=partialRectangle;connectable=0;fillColor=none;top=0;left=0;bottom=0;right=0;editable=1;overflow=hidden;" vertex="1" parent="D5SYm8FrXGjHPreOWiLi-17">
          <mxGeometry width="30" height="30" as="geometry">
            <mxRectangle width="30" height="30" as="alternateBounds" />
          </mxGeometry>
        </mxCell>
        <mxCell id="D5SYm8FrXGjHPreOWiLi-19" value="entity_type" style="shape=partialRectangle;connectable=0;fillColor=none;top=0;left=0;bottom=0;right=0;align=left;spacingLeft=6;overflow=hidden;" vertex="1" parent="D5SYm8FrXGjHPreOWiLi-17">
          <mxGeometry x="30" width="150" height="30" as="geometry">
            <mxRectangle width="150" height="30" as="alternateBounds" />
          </mxGeometry>
        </mxCell>
        <mxCell id="zLAtPKruSv_M1IxSRYuG-76" value="" style="shape=tableRow;horizontal=0;startSize=0;swimlaneHead=0;swimlaneBody=0;fillColor=none;collapsible=0;dropTarget=0;points=[[0,0.5],[1,0.5]];portConstraint=eastwest;top=0;left=0;right=0;bottom=0;" parent="zLAtPKruSv_M1IxSRYuG-66" vertex="1">
          <mxGeometry y="150" width="180" height="30" as="geometry" />
        </mxCell>
        <mxCell id="zLAtPKruSv_M1IxSRYuG-77" value="" style="shape=partialRectangle;connectable=0;fillColor=none;top=0;left=0;bottom=0;right=0;editable=1;overflow=hidden;whiteSpace=wrap;html=1;" parent="zLAtPKruSv_M1IxSRYuG-76" vertex="1">
          <mxGeometry width="30" height="30" as="geometry">
            <mxRectangle width="30" height="30" as="alternateBounds" />
          </mxGeometry>
        </mxCell>
        <mxCell id="zLAtPKruSv_M1IxSRYuG-78" value="recommended: bool" style="shape=partialRectangle;connectable=0;fillColor=none;top=0;left=0;bottom=0;right=0;align=left;spacingLeft=6;overflow=hidden;whiteSpace=wrap;html=1;" parent="zLAtPKruSv_M1IxSRYuG-76" vertex="1">
          <mxGeometry x="30" width="150" height="30" as="geometry">
            <mxRectangle width="150" height="30" as="alternateBounds" />
          </mxGeometry>
        </mxCell>
        <mxCell id="zLAtPKruSv_M1IxSRYuG-79" value="Artist" style="shape=table;startSize=30;container=1;collapsible=1;childLayout=tableLayout;fixedRows=1;rowLines=0;fontStyle=1;align=center;resizeLast=1;html=1;fillColor=#dae8fc;strokeColor=#6c8ebf;" parent="1" vertex="1">
          <mxGeometry x="-125" y="570" width="190" height="150" as="geometry" />
        </mxCell>
        <mxCell id="zLAtPKruSv_M1IxSRYuG-80" value="" style="shape=tableRow;horizontal=0;startSize=0;swimlaneHead=0;swimlaneBody=0;fillColor=none;collapsible=0;dropTarget=0;points=[[0,0.5],[1,0.5]];portConstraint=eastwest;top=0;left=0;right=0;bottom=1;" parent="zLAtPKruSv_M1IxSRYuG-79" vertex="1">
          <mxGeometry y="30" width="190" height="30" as="geometry" />
        </mxCell>
        <mxCell id="zLAtPKruSv_M1IxSRYuG-81" value="PK" style="shape=partialRectangle;connectable=0;fillColor=none;top=0;left=0;bottom=0;right=0;fontStyle=1;overflow=hidden;whiteSpace=wrap;html=1;" parent="zLAtPKruSv_M1IxSRYuG-80" vertex="1">
          <mxGeometry width="30" height="30" as="geometry">
            <mxRectangle width="30" height="30" as="alternateBounds" />
          </mxGeometry>
        </mxCell>
        <mxCell id="zLAtPKruSv_M1IxSRYuG-82" value="artist_id" style="shape=partialRectangle;connectable=0;fillColor=none;top=0;left=0;bottom=0;right=0;align=left;spacingLeft=6;fontStyle=5;overflow=hidden;whiteSpace=wrap;html=1;" parent="zLAtPKruSv_M1IxSRYuG-80" vertex="1">
          <mxGeometry x="30" width="160" height="30" as="geometry">
            <mxRectangle width="160" height="30" as="alternateBounds" />
          </mxGeometry>
        </mxCell>
        <mxCell id="zLAtPKruSv_M1IxSRYuG-83" value="" style="shape=tableRow;horizontal=0;startSize=0;swimlaneHead=0;swimlaneBody=0;fillColor=none;collapsible=0;dropTarget=0;points=[[0,0.5],[1,0.5]];portConstraint=eastwest;top=0;left=0;right=0;bottom=0;" parent="zLAtPKruSv_M1IxSRYuG-79" vertex="1">
          <mxGeometry y="60" width="190" height="30" as="geometry" />
        </mxCell>
        <mxCell id="zLAtPKruSv_M1IxSRYuG-84" value="" style="shape=partialRectangle;connectable=0;fillColor=none;top=0;left=0;bottom=0;right=0;editable=1;overflow=hidden;whiteSpace=wrap;html=1;" parent="zLAtPKruSv_M1IxSRYuG-83" vertex="1">
          <mxGeometry width="30" height="30" as="geometry">
            <mxRectangle width="30" height="30" as="alternateBounds" />
          </mxGeometry>
        </mxCell>
        <mxCell id="zLAtPKruSv_M1IxSRYuG-85" value="name" style="shape=partialRectangle;connectable=0;fillColor=none;top=0;left=0;bottom=0;right=0;align=left;spacingLeft=6;overflow=hidden;whiteSpace=wrap;html=1;" parent="zLAtPKruSv_M1IxSRYuG-83" vertex="1">
          <mxGeometry x="30" width="160" height="30" as="geometry">
            <mxRectangle width="160" height="30" as="alternateBounds" />
          </mxGeometry>
        </mxCell>
        <mxCell id="zLAtPKruSv_M1IxSRYuG-151" value="" style="shape=tableRow;horizontal=0;startSize=0;swimlaneHead=0;swimlaneBody=0;fillColor=none;collapsible=0;dropTarget=0;points=[[0,0.5],[1,0.5]];portConstraint=eastwest;top=0;left=0;right=0;bottom=0;" parent="zLAtPKruSv_M1IxSRYuG-79" vertex="1">
          <mxGeometry y="90" width="190" height="30" as="geometry" />
        </mxCell>
        <mxCell id="zLAtPKruSv_M1IxSRYuG-152" value="" style="shape=partialRectangle;connectable=0;fillColor=none;top=0;left=0;bottom=0;right=0;editable=1;overflow=hidden;" parent="zLAtPKruSv_M1IxSRYuG-151" vertex="1">
          <mxGeometry width="30" height="30" as="geometry">
            <mxRectangle width="30" height="30" as="alternateBounds" />
          </mxGeometry>
        </mxCell>
        <mxCell id="zLAtPKruSv_M1IxSRYuG-153" value="image" style="shape=partialRectangle;connectable=0;fillColor=none;top=0;left=0;bottom=0;right=0;align=left;spacingLeft=6;overflow=hidden;" parent="zLAtPKruSv_M1IxSRYuG-151" vertex="1">
          <mxGeometry x="30" width="160" height="30" as="geometry">
            <mxRectangle width="160" height="30" as="alternateBounds" />
          </mxGeometry>
        </mxCell>
        <mxCell id="zLAtPKruSv_M1IxSRYuG-154" value="" style="shape=tableRow;horizontal=0;startSize=0;swimlaneHead=0;swimlaneBody=0;fillColor=none;collapsible=0;dropTarget=0;points=[[0,0.5],[1,0.5]];portConstraint=eastwest;top=0;left=0;right=0;bottom=0;" parent="zLAtPKruSv_M1IxSRYuG-79" vertex="1">
          <mxGeometry y="120" width="190" height="30" as="geometry" />
        </mxCell>
        <mxCell id="zLAtPKruSv_M1IxSRYuG-155" value="" style="shape=partialRectangle;connectable=0;fillColor=none;top=0;left=0;bottom=0;right=0;editable=1;overflow=hidden;" parent="zLAtPKruSv_M1IxSRYuG-154" vertex="1">
          <mxGeometry width="30" height="30" as="geometry">
            <mxRectangle width="30" height="30" as="alternateBounds" />
          </mxGeometry>
        </mxCell>
        <mxCell id="zLAtPKruSv_M1IxSRYuG-156" value="description" style="shape=partialRectangle;connectable=0;fillColor=none;top=0;left=0;bottom=0;right=0;align=left;spacingLeft=6;overflow=hidden;" parent="zLAtPKruSv_M1IxSRYuG-154" vertex="1">
          <mxGeometry x="30" width="160" height="30" as="geometry">
            <mxRectangle width="160" height="30" as="alternateBounds" />
          </mxGeometry>
        </mxCell>
        <mxCell id="zLAtPKruSv_M1IxSRYuG-106" value="&lt;b&gt;&lt;font style=&quot;font-size: 17px;&quot;&gt;Song Surf entity relationship diagram&lt;/font&gt;&lt;/b&gt;" style="rounded=0;whiteSpace=wrap;html=1;strokeWidth=4;" parent="1" vertex="1">
          <mxGeometry x="-280" y="-10" width="510" height="40" as="geometry" />
        </mxCell>
        <mxCell id="zLAtPKruSv_M1IxSRYuG-192" value="Note: This database does not store the input searches of a user. It stores what&#39;s been recommended, what has been favorited, and what has been disliked" style="rounded=1;whiteSpace=wrap;html=1;strokeColor=#000000;" parent="1" vertex="1">
          <mxGeometry x="-147.57999999999998" y="50" width="251.72" height="60" as="geometry" />
        </mxCell>
        <mxCell id="zLAtPKruSv_M1IxSRYuG-261" value="Album" style="shape=table;startSize=30;container=1;collapsible=1;childLayout=tableLayout;fixedRows=1;rowLines=0;fontStyle=1;align=center;resizeLast=1;html=1;fillColor=#dae8fc;strokeColor=#6c8ebf;" parent="1" vertex="1">
          <mxGeometry x="-450" y="470" width="190" height="210" as="geometry" />
        </mxCell>
        <mxCell id="zLAtPKruSv_M1IxSRYuG-262" value="" style="shape=tableRow;horizontal=0;startSize=0;swimlaneHead=0;swimlaneBody=0;fillColor=none;collapsible=0;dropTarget=0;points=[[0,0.5],[1,0.5]];portConstraint=eastwest;top=0;left=0;right=0;bottom=1;" parent="zLAtPKruSv_M1IxSRYuG-261" vertex="1">
          <mxGeometry y="30" width="190" height="30" as="geometry" />
        </mxCell>
        <mxCell id="zLAtPKruSv_M1IxSRYuG-263" value="PK" style="shape=partialRectangle;connectable=0;fillColor=none;top=0;left=0;bottom=0;right=0;fontStyle=1;overflow=hidden;whiteSpace=wrap;html=1;" parent="zLAtPKruSv_M1IxSRYuG-262" vertex="1">
          <mxGeometry width="30" height="30" as="geometry">
            <mxRectangle width="30" height="30" as="alternateBounds" />
          </mxGeometry>
        </mxCell>
        <mxCell id="zLAtPKruSv_M1IxSRYuG-264" value="album_id" style="shape=partialRectangle;connectable=0;fillColor=none;top=0;left=0;bottom=0;right=0;align=left;spacingLeft=6;fontStyle=5;overflow=hidden;whiteSpace=wrap;html=1;" parent="zLAtPKruSv_M1IxSRYuG-262" vertex="1">
          <mxGeometry x="30" width="160" height="30" as="geometry">
            <mxRectangle width="160" height="30" as="alternateBounds" />
          </mxGeometry>
        </mxCell>
        <mxCell id="zLAtPKruSv_M1IxSRYuG-265" value="" style="shape=tableRow;horizontal=0;startSize=0;swimlaneHead=0;swimlaneBody=0;fillColor=none;collapsible=0;dropTarget=0;points=[[0,0.5],[1,0.5]];portConstraint=eastwest;top=0;left=0;right=0;bottom=0;" parent="zLAtPKruSv_M1IxSRYuG-261" vertex="1">
          <mxGeometry y="60" width="190" height="30" as="geometry" />
        </mxCell>
        <mxCell id="zLAtPKruSv_M1IxSRYuG-266" value="FK" style="shape=partialRectangle;connectable=0;fillColor=none;top=0;left=0;bottom=0;right=0;editable=1;overflow=hidden;whiteSpace=wrap;html=1;fontStyle=1" parent="zLAtPKruSv_M1IxSRYuG-265" vertex="1">
          <mxGeometry width="30" height="30" as="geometry">
            <mxRectangle width="30" height="30" as="alternateBounds" />
          </mxGeometry>
        </mxCell>
        <mxCell id="zLAtPKruSv_M1IxSRYuG-267" value="artist_id" style="shape=partialRectangle;connectable=0;fillColor=none;top=0;left=0;bottom=0;right=0;align=left;spacingLeft=6;overflow=hidden;whiteSpace=wrap;html=1;fontStyle=1" parent="zLAtPKruSv_M1IxSRYuG-265" vertex="1">
          <mxGeometry x="30" width="160" height="30" as="geometry">
            <mxRectangle width="160" height="30" as="alternateBounds" />
          </mxGeometry>
        </mxCell>
        <mxCell id="zLAtPKruSv_M1IxSRYuG-271" value="" style="shape=tableRow;horizontal=0;startSize=0;swimlaneHead=0;swimlaneBody=0;fillColor=none;collapsible=0;dropTarget=0;points=[[0,0.5],[1,0.5]];portConstraint=eastwest;top=0;left=0;right=0;bottom=0;" parent="zLAtPKruSv_M1IxSRYuG-261" vertex="1">
          <mxGeometry y="90" width="190" height="30" as="geometry" />
        </mxCell>
        <mxCell id="zLAtPKruSv_M1IxSRYuG-272" value="" style="shape=partialRectangle;connectable=0;fillColor=none;top=0;left=0;bottom=0;right=0;editable=1;overflow=hidden;whiteSpace=wrap;html=1;" parent="zLAtPKruSv_M1IxSRYuG-271" vertex="1">
          <mxGeometry width="30" height="30" as="geometry">
            <mxRectangle width="30" height="30" as="alternateBounds" />
          </mxGeometry>
        </mxCell>
        <mxCell id="zLAtPKruSv_M1IxSRYuG-273" value="name" style="shape=partialRectangle;connectable=0;fillColor=none;top=0;left=0;bottom=0;right=0;align=left;spacingLeft=6;overflow=hidden;whiteSpace=wrap;html=1;" parent="zLAtPKruSv_M1IxSRYuG-271" vertex="1">
          <mxGeometry x="30" width="160" height="30" as="geometry">
            <mxRectangle width="160" height="30" as="alternateBounds" />
          </mxGeometry>
        </mxCell>
        <mxCell id="zLAtPKruSv_M1IxSRYuG-274" value="" style="shape=tableRow;horizontal=0;startSize=0;swimlaneHead=0;swimlaneBody=0;fillColor=none;collapsible=0;dropTarget=0;points=[[0,0.5],[1,0.5]];portConstraint=eastwest;top=0;left=0;right=0;bottom=0;" parent="zLAtPKruSv_M1IxSRYuG-261" vertex="1">
          <mxGeometry y="120" width="190" height="30" as="geometry" />
        </mxCell>
        <mxCell id="zLAtPKruSv_M1IxSRYuG-275" value="" style="shape=partialRectangle;connectable=0;fillColor=none;top=0;left=0;bottom=0;right=0;editable=1;overflow=hidden;" parent="zLAtPKruSv_M1IxSRYuG-274" vertex="1">
          <mxGeometry width="30" height="30" as="geometry">
            <mxRectangle width="30" height="30" as="alternateBounds" />
          </mxGeometry>
        </mxCell>
        <mxCell id="zLAtPKruSv_M1IxSRYuG-276" value="image" style="shape=partialRectangle;connectable=0;fillColor=none;top=0;left=0;bottom=0;right=0;align=left;spacingLeft=6;overflow=hidden;" parent="zLAtPKruSv_M1IxSRYuG-274" vertex="1">
          <mxGeometry x="30" width="160" height="30" as="geometry">
            <mxRectangle width="160" height="30" as="alternateBounds" />
          </mxGeometry>
        </mxCell>
        <mxCell id="zLAtPKruSv_M1IxSRYuG-277" value="" style="shape=tableRow;horizontal=0;startSize=0;swimlaneHead=0;swimlaneBody=0;fillColor=none;collapsible=0;dropTarget=0;points=[[0,0.5],[1,0.5]];portConstraint=eastwest;top=0;left=0;right=0;bottom=0;" parent="zLAtPKruSv_M1IxSRYuG-261" vertex="1">
          <mxGeometry y="150" width="190" height="30" as="geometry" />
        </mxCell>
        <mxCell id="zLAtPKruSv_M1IxSRYuG-278" value="" style="shape=partialRectangle;connectable=0;fillColor=none;top=0;left=0;bottom=0;right=0;editable=1;overflow=hidden;" parent="zLAtPKruSv_M1IxSRYuG-277" vertex="1">
          <mxGeometry width="30" height="30" as="geometry">
            <mxRectangle width="30" height="30" as="alternateBounds" />
          </mxGeometry>
        </mxCell>
        <mxCell id="zLAtPKruSv_M1IxSRYuG-279" value="description" style="shape=partialRectangle;connectable=0;fillColor=none;top=0;left=0;bottom=0;right=0;align=left;spacingLeft=6;overflow=hidden;" parent="zLAtPKruSv_M1IxSRYuG-277" vertex="1">
          <mxGeometry x="30" width="160" height="30" as="geometry">
            <mxRectangle width="160" height="30" as="alternateBounds" />
          </mxGeometry>
        </mxCell>
        <mxCell id="zLAtPKruSv_M1IxSRYuG-356" value="" style="shape=tableRow;horizontal=0;startSize=0;swimlaneHead=0;swimlaneBody=0;fillColor=none;collapsible=0;dropTarget=0;points=[[0,0.5],[1,0.5]];portConstraint=eastwest;top=0;left=0;right=0;bottom=0;" parent="zLAtPKruSv_M1IxSRYuG-261" vertex="1">
          <mxGeometry y="180" width="190" height="30" as="geometry" />
        </mxCell>
        <mxCell id="zLAtPKruSv_M1IxSRYuG-357" value="" style="shape=partialRectangle;connectable=0;fillColor=none;top=0;left=0;bottom=0;right=0;editable=1;overflow=hidden;" parent="zLAtPKruSv_M1IxSRYuG-356" vertex="1">
          <mxGeometry width="30" height="30" as="geometry">
            <mxRectangle width="30" height="30" as="alternateBounds" />
          </mxGeometry>
        </mxCell>
        <mxCell id="zLAtPKruSv_M1IxSRYuG-358" value="release_date" style="shape=partialRectangle;connectable=0;fillColor=none;top=0;left=0;bottom=0;right=0;align=left;spacingLeft=6;overflow=hidden;" parent="zLAtPKruSv_M1IxSRYuG-356" vertex="1">
          <mxGeometry x="30" width="160" height="30" as="geometry">
            <mxRectangle width="160" height="30" as="alternateBounds" />
          </mxGeometry>
        </mxCell>
        <mxCell id="zLAtPKruSv_M1IxSRYuG-293" value="track" style="shape=table;startSize=40;container=1;collapsible=1;childLayout=tableLayout;fixedRows=1;rowLines=0;fontStyle=1;align=center;resizeLast=1;html=1;fillColor=#dae8fc;strokeColor=#6c8ebf;" parent="1" vertex="1">
          <mxGeometry x="195" y="470" width="190" height="250" as="geometry" />
        </mxCell>
        <mxCell id="zLAtPKruSv_M1IxSRYuG-294" value="" style="shape=tableRow;horizontal=0;startSize=0;swimlaneHead=0;swimlaneBody=0;fillColor=none;collapsible=0;dropTarget=0;points=[[0,0.5],[1,0.5]];portConstraint=eastwest;top=0;left=0;right=0;bottom=1;" parent="zLAtPKruSv_M1IxSRYuG-293" vertex="1">
          <mxGeometry y="40" width="190" height="30" as="geometry" />
        </mxCell>
        <mxCell id="zLAtPKruSv_M1IxSRYuG-295" value="PK" style="shape=partialRectangle;connectable=0;fillColor=none;top=0;left=0;bottom=0;right=0;fontStyle=1;overflow=hidden;whiteSpace=wrap;html=1;" parent="zLAtPKruSv_M1IxSRYuG-294" vertex="1">
          <mxGeometry width="30" height="30" as="geometry">
            <mxRectangle width="30" height="30" as="alternateBounds" />
          </mxGeometry>
        </mxCell>
        <mxCell id="zLAtPKruSv_M1IxSRYuG-296" value="track_id" style="shape=partialRectangle;connectable=0;fillColor=none;top=0;left=0;bottom=0;right=0;align=left;spacingLeft=6;fontStyle=5;overflow=hidden;whiteSpace=wrap;html=1;" parent="zLAtPKruSv_M1IxSRYuG-294" vertex="1">
          <mxGeometry x="30" width="160" height="30" as="geometry">
            <mxRectangle width="160" height="30" as="alternateBounds" />
          </mxGeometry>
        </mxCell>
        <mxCell id="zLAtPKruSv_M1IxSRYuG-297" value="" style="shape=tableRow;horizontal=0;startSize=0;swimlaneHead=0;swimlaneBody=0;fillColor=none;collapsible=0;dropTarget=0;points=[[0,0.5],[1,0.5]];portConstraint=eastwest;top=0;left=0;right=0;bottom=0;" parent="zLAtPKruSv_M1IxSRYuG-293" vertex="1">
          <mxGeometry y="70" width="190" height="30" as="geometry" />
        </mxCell>
        <mxCell id="zLAtPKruSv_M1IxSRYuG-298" value="FK" style="shape=partialRectangle;connectable=0;fillColor=none;top=0;left=0;bottom=0;right=0;editable=1;overflow=hidden;whiteSpace=wrap;html=1;fontStyle=1" parent="zLAtPKruSv_M1IxSRYuG-297" vertex="1">
          <mxGeometry width="30" height="30" as="geometry">
            <mxRectangle width="30" height="30" as="alternateBounds" />
          </mxGeometry>
        </mxCell>
        <mxCell id="zLAtPKruSv_M1IxSRYuG-299" value="artist_id" style="shape=partialRectangle;connectable=0;fillColor=none;top=0;left=0;bottom=0;right=0;align=left;spacingLeft=6;overflow=hidden;whiteSpace=wrap;html=1;fontStyle=1" parent="zLAtPKruSv_M1IxSRYuG-297" vertex="1">
          <mxGeometry x="30" width="160" height="30" as="geometry">
            <mxRectangle width="160" height="30" as="alternateBounds" />
          </mxGeometry>
        </mxCell>
        <mxCell id="zLAtPKruSv_M1IxSRYuG-300" value="" style="shape=tableRow;horizontal=0;startSize=0;swimlaneHead=0;swimlaneBody=0;fillColor=none;collapsible=0;dropTarget=0;points=[[0,0.5],[1,0.5]];portConstraint=eastwest;top=0;left=0;right=0;bottom=0;" parent="zLAtPKruSv_M1IxSRYuG-293" vertex="1">
          <mxGeometry y="100" width="190" height="30" as="geometry" />
        </mxCell>
        <mxCell id="zLAtPKruSv_M1IxSRYuG-301" value="FK" style="shape=partialRectangle;connectable=0;fillColor=none;top=0;left=0;bottom=0;right=0;editable=1;overflow=hidden;fontStyle=1" parent="zLAtPKruSv_M1IxSRYuG-300" vertex="1">
          <mxGeometry width="30" height="30" as="geometry">
            <mxRectangle width="30" height="30" as="alternateBounds" />
          </mxGeometry>
        </mxCell>
        <mxCell id="zLAtPKruSv_M1IxSRYuG-302" value="album_id" style="shape=partialRectangle;connectable=0;fillColor=none;top=0;left=0;bottom=0;right=0;align=left;spacingLeft=6;overflow=hidden;fontStyle=1" parent="zLAtPKruSv_M1IxSRYuG-300" vertex="1">
          <mxGeometry x="30" width="160" height="30" as="geometry">
            <mxRectangle width="160" height="30" as="alternateBounds" />
          </mxGeometry>
        </mxCell>
        <mxCell id="zLAtPKruSv_M1IxSRYuG-303" value="" style="shape=tableRow;horizontal=0;startSize=0;swimlaneHead=0;swimlaneBody=0;fillColor=none;collapsible=0;dropTarget=0;points=[[0,0.5],[1,0.5]];portConstraint=eastwest;top=0;left=0;right=0;bottom=0;" parent="zLAtPKruSv_M1IxSRYuG-293" vertex="1">
          <mxGeometry y="130" width="190" height="30" as="geometry" />
        </mxCell>
        <mxCell id="zLAtPKruSv_M1IxSRYuG-304" value="" style="shape=partialRectangle;connectable=0;fillColor=none;top=0;left=0;bottom=0;right=0;editable=1;overflow=hidden;whiteSpace=wrap;html=1;" parent="zLAtPKruSv_M1IxSRYuG-303" vertex="1">
          <mxGeometry width="30" height="30" as="geometry">
            <mxRectangle width="30" height="30" as="alternateBounds" />
          </mxGeometry>
        </mxCell>
        <mxCell id="zLAtPKruSv_M1IxSRYuG-305" value="name" style="shape=partialRectangle;connectable=0;fillColor=none;top=0;left=0;bottom=0;right=0;align=left;spacingLeft=6;overflow=hidden;whiteSpace=wrap;html=1;" parent="zLAtPKruSv_M1IxSRYuG-303" vertex="1">
          <mxGeometry x="30" width="160" height="30" as="geometry">
            <mxRectangle width="160" height="30" as="alternateBounds" />
          </mxGeometry>
        </mxCell>
        <mxCell id="zLAtPKruSv_M1IxSRYuG-306" value="" style="shape=tableRow;horizontal=0;startSize=0;swimlaneHead=0;swimlaneBody=0;fillColor=none;collapsible=0;dropTarget=0;points=[[0,0.5],[1,0.5]];portConstraint=eastwest;top=0;left=0;right=0;bottom=0;" parent="zLAtPKruSv_M1IxSRYuG-293" vertex="1">
          <mxGeometry y="160" width="190" height="30" as="geometry" />
        </mxCell>
        <mxCell id="zLAtPKruSv_M1IxSRYuG-307" value="" style="shape=partialRectangle;connectable=0;fillColor=none;top=0;left=0;bottom=0;right=0;editable=1;overflow=hidden;" parent="zLAtPKruSv_M1IxSRYuG-306" vertex="1">
          <mxGeometry width="30" height="30" as="geometry">
            <mxRectangle width="30" height="30" as="alternateBounds" />
          </mxGeometry>
        </mxCell>
        <mxCell id="zLAtPKruSv_M1IxSRYuG-308" value="image" style="shape=partialRectangle;connectable=0;fillColor=none;top=0;left=0;bottom=0;right=0;align=left;spacingLeft=6;overflow=hidden;" parent="zLAtPKruSv_M1IxSRYuG-306" vertex="1">
          <mxGeometry x="30" width="160" height="30" as="geometry">
            <mxRectangle width="160" height="30" as="alternateBounds" />
          </mxGeometry>
        </mxCell>
        <mxCell id="zLAtPKruSv_M1IxSRYuG-309" value="" style="shape=tableRow;horizontal=0;startSize=0;swimlaneHead=0;swimlaneBody=0;fillColor=none;collapsible=0;dropTarget=0;points=[[0,0.5],[1,0.5]];portConstraint=eastwest;top=0;left=0;right=0;bottom=0;" parent="zLAtPKruSv_M1IxSRYuG-293" vertex="1">
          <mxGeometry y="190" width="190" height="30" as="geometry" />
        </mxCell>
        <mxCell id="zLAtPKruSv_M1IxSRYuG-310" value="" style="shape=partialRectangle;connectable=0;fillColor=none;top=0;left=0;bottom=0;right=0;editable=1;overflow=hidden;" parent="zLAtPKruSv_M1IxSRYuG-309" vertex="1">
          <mxGeometry width="30" height="30" as="geometry">
            <mxRectangle width="30" height="30" as="alternateBounds" />
          </mxGeometry>
        </mxCell>
        <mxCell id="zLAtPKruSv_M1IxSRYuG-311" value="description" style="shape=partialRectangle;connectable=0;fillColor=none;top=0;left=0;bottom=0;right=0;align=left;spacingLeft=6;overflow=hidden;" parent="zLAtPKruSv_M1IxSRYuG-309" vertex="1">
          <mxGeometry x="30" width="160" height="30" as="geometry">
            <mxRectangle width="160" height="30" as="alternateBounds" />
          </mxGeometry>
        </mxCell>
        <mxCell id="zLAtPKruSv_M1IxSRYuG-363" value="" style="shape=tableRow;horizontal=0;startSize=0;swimlaneHead=0;swimlaneBody=0;fillColor=none;collapsible=0;dropTarget=0;points=[[0,0.5],[1,0.5]];portConstraint=eastwest;top=0;left=0;right=0;bottom=0;" parent="zLAtPKruSv_M1IxSRYuG-293" vertex="1">
          <mxGeometry y="220" width="190" height="30" as="geometry" />
        </mxCell>
        <mxCell id="zLAtPKruSv_M1IxSRYuG-364" value="" style="shape=partialRectangle;connectable=0;fillColor=none;top=0;left=0;bottom=0;right=0;editable=1;overflow=hidden;" parent="zLAtPKruSv_M1IxSRYuG-363" vertex="1">
          <mxGeometry width="30" height="30" as="geometry">
            <mxRectangle width="30" height="30" as="alternateBounds" />
          </mxGeometry>
        </mxCell>
        <mxCell id="zLAtPKruSv_M1IxSRYuG-365" value="release_date" style="shape=partialRectangle;connectable=0;fillColor=none;top=0;left=0;bottom=0;right=0;align=left;spacingLeft=6;overflow=hidden;" parent="zLAtPKruSv_M1IxSRYuG-363" vertex="1">
          <mxGeometry x="30" width="160" height="30" as="geometry">
            <mxRectangle width="160" height="30" as="alternateBounds" />
          </mxGeometry>
        </mxCell>
        <mxCell id="zLAtPKruSv_M1IxSRYuG-336" value="" style="edgeStyle=entityRelationEdgeStyle;fontSize=12;html=1;endArrow=ERoneToMany;rounded=0;" parent="1" source="zLAtPKruSv_M1IxSRYuG-15" target="D5SYm8FrXGjHPreOWiLi-5" edge="1">
          <mxGeometry width="100" height="100" relative="1" as="geometry">
            <mxPoint x="720" y="640" as="sourcePoint" />
            <mxPoint x="450" y="485" as="targetPoint" />
          </mxGeometry>
        </mxCell>
        <mxCell id="zLAtPKruSv_M1IxSRYuG-340" value="" style="edgeStyle=entityRelationEdgeStyle;fontSize=12;html=1;endArrow=ERoneToMany;rounded=0;" parent="1" source="zLAtPKruSv_M1IxSRYuG-262" target="D5SYm8FrXGjHPreOWiLi-8" edge="1">
          <mxGeometry width="100" height="100" relative="1" as="geometry">
            <mxPoint x="-145" y="195" as="sourcePoint" />
            <mxPoint x="40" y="420" as="targetPoint" />
          </mxGeometry>
        </mxCell>
        <mxCell id="zLAtPKruSv_M1IxSRYuG-345" value="" style="edgeStyle=entityRelationEdgeStyle;fontSize=12;html=1;endArrow=ERoneToMany;rounded=0;" parent="1" source="zLAtPKruSv_M1IxSRYuG-294" target="D5SYm8FrXGjHPreOWiLi-8" edge="1">
          <mxGeometry width="100" height="100" relative="1" as="geometry">
            <mxPoint x="205" y="390" as="sourcePoint" />
            <mxPoint x="450" y="725" as="targetPoint" />
          </mxGeometry>
        </mxCell>
        <mxCell id="zLAtPKruSv_M1IxSRYuG-349" value="" style="edgeStyle=entityRelationEdgeStyle;fontSize=12;html=1;endArrow=ERoneToMany;rounded=0;" parent="1" source="zLAtPKruSv_M1IxSRYuG-80" target="D5SYm8FrXGjHPreOWiLi-8" edge="1">
          <mxGeometry width="100" height="100" relative="1" as="geometry">
            <mxPoint x="620" y="285" as="sourcePoint" />
            <mxPoint x="619" y="535" as="targetPoint" />
          </mxGeometry>
        </mxCell>
        <mxCell id="zLAtPKruSv_M1IxSRYuG-350" value="" style="edgeStyle=entityRelationEdgeStyle;fontSize=12;html=1;endArrow=ERoneToMany;rounded=0;" parent="1" source="zLAtPKruSv_M1IxSRYuG-15" target="zLAtPKruSv_M1IxSRYuG-70" edge="1">
          <mxGeometry width="100" height="100" relative="1" as="geometry">
            <mxPoint x="629" y="390" as="sourcePoint" />
            <mxPoint x="729" y="550" as="targetPoint" />
          </mxGeometry>
        </mxCell>
        <mxCell id="zLAtPKruSv_M1IxSRYuG-353" value="" style="edgeStyle=entityRelationEdgeStyle;fontSize=12;html=1;endArrow=ERoneToMany;rounded=0;strokeColor=#000000;" parent="1" source="zLAtPKruSv_M1IxSRYuG-80" target="zLAtPKruSv_M1IxSRYuG-265" edge="1">
          <mxGeometry width="100" height="100" relative="1" as="geometry">
            <mxPoint x="220" y="205" as="sourcePoint" />
            <mxPoint x="210" y="480" as="targetPoint" />
          </mxGeometry>
        </mxCell>
        <mxCell id="zLAtPKruSv_M1IxSRYuG-354" value="" style="edgeStyle=entityRelationEdgeStyle;fontSize=12;html=1;endArrow=ERoneToMany;rounded=0;strokeColor=#000000;" parent="1" source="zLAtPKruSv_M1IxSRYuG-80" target="zLAtPKruSv_M1IxSRYuG-297" edge="1">
          <mxGeometry width="100" height="100" relative="1" as="geometry">
            <mxPoint x="439" y="580" as="sourcePoint" />
            <mxPoint x="50" y="595" as="targetPoint" />
          </mxGeometry>
        </mxCell>
        <mxCell id="zLAtPKruSv_M1IxSRYuG-355" value="" style="edgeStyle=entityRelationEdgeStyle;fontSize=12;html=1;endArrow=ERoneToMany;rounded=0;strokeColor=#000000;" parent="1" source="zLAtPKruSv_M1IxSRYuG-262" target="zLAtPKruSv_M1IxSRYuG-300" edge="1">
          <mxGeometry width="100" height="100" relative="1" as="geometry">
            <mxPoint x="189" y="285" as="sourcePoint" />
            <mxPoint x="90" y="725" as="targetPoint" />
          </mxGeometry>
        </mxCell>
        <mxCell id="zLAtPKruSv_M1IxSRYuG-366" value="&lt;font style=&quot;font-size: 10px;&quot;&gt;Note: As you may know, an album can have many artists, or a track can have many artists. Since last.fm returns only one artist (the main artist) for an album or a track, this diagram keeps the relationship between an album/track and artist as one to many. To solve the multiple artists issue, the track title has (feat. artistX, artistY)&lt;/font&gt;" style="rounded=1;whiteSpace=wrap;html=1;strokeColor=#000000;" parent="1" vertex="1">
          <mxGeometry x="-147.57999999999998" y="140" width="261.72" height="90" as="geometry" />
        </mxCell>
        <mxCell id="zLAtPKruSv_M1IxSRYuG-372" value="" style="shape=image;verticalLabelPosition=bottom;labelBackgroundColor=default;verticalAlign=top;aspect=fixed;imageAspect=0;image=data:image/png,iVBORw0KGgoAAAANSUhEUgAAA30AAAFHCAYAAAAV9CVbAAAgAElEQVR4nOzdPXKjyOM38K+e+h8FrWu2RgdAcwJpHThyOL8MwpECZ+toNnMAE5psHSpy4IUTjHQATa3LC3fpJwAkQEA30EgYfz9VrtodRNNv9ItoWhMhhAARERERERGN0v+7dASIiIiIiIioP/lJX/QDXyYTTDJ/X35EZ4xOhB9fJrCDM16ylTiek4mNwUa1UJbnLUcFg47fOyhfIiIiIiJFJU/6LPhCQAgBIXx8Xk0xaTgLi358weTLDwxpGD8k/edPhB//WwFumJSjwM9vRm9Xa+6y8WP9JCIiIqKPRLK8c4HH0MXc+wuDehBzcQa+/RQQ4hGLS0elVIh/t3Pc/jGkiV7W0OM39PIlIiIiIlInf6fP+A2fscXmn+OsL7CzS0CPS+CiH18wmUwwXW2B7QrTw2e+5CaNVecfpcvr4r/ig0bZ+fnjkvMbPvFJ01h+7XR5agC7JO2t8qcQv+jHl/jJa2C3Xhopzf/iMt9CHLrkX72S5b2BnblGff7K4q+S//Xle4xD+WfU4iern0ByPp9GEhEREZEGChu5TPH7/Ph/0Y8veL4Rh2V5vuVhmQxOjW8/IYRA6M6BuYvwsEz0J9LVe3Xnp7zlFP/+KQ5hecv8xLLu/OjHFyx/Za8t8Jh5XBPYEyzhH8//vMK0weA6TaPwrcrPeMu/8HuYxm+L1f/U80cpft4Sk79+j88PXWD1v3hicZgILuFhi9W0fGJem/+Bjcl0hc/+8TPi5zcYaBC/KgrxU1GVv7L4q+R/fflG+PFlitXnY/pD9xeWhfjXxU9WP4mIiIiIdGu8e6fx7WdukLq4qZ78tD3f8o8DYePbn7DwC/9FDa6/3eCf0llIgGdvDvfuGMDizsW88vPtWP5xEtEsf1TjZ8FPJ2LJk9h/QwCLx8O7mBbmcMN0YnFcpijLv+DZAyy/YiLSMf8U4qeiLn/r499R9A82Wwt+JvC4fnp4zsz6pOUvza8FHguTbSIiIiKithQmfSH+3Wb+t7h0buk1u2Kr85NJjcL5xrefCF0cnyJln0JF/+FX7gnTBJPpClsMhGr8rJvMJCmeIChPcmrzL8J/vwDrpiKwoeefLP5dhf+WpDX/JFymtn4SEREREfVAPukLnuEh3XQjgD3N77pYt8yxJLDm50f/4Rfm+H2qfv5hiZ4I4WKFae6lqewTptPlfZfXZ/zU8u/Xf3XTkKHnnyz+uhW+FFFQXz+JiIiIiPSqn/RFP/Bl6WHu/l0xqA9glzypM377rLCErfr83CceVthafza6fiYm+O1z9n//wO18i9XDZQfZlflz9vgV88/AH7dzbNN3BIvOFD8vXSuZ1D91kvinn1KunwWLG1jwsMxM0gJ7CW/u4q7Vw8VC/TyGyo1ciIiIiEibkkmfh2Vm6d5nP/sbagvcuXNsV9Nked9f+N0teVK3eIw3sDgsA0x3MFQ731selw8u4UMc1i7Kzy/ujLj85SI8nG/g288Q7q9l7jPqg+vMzo1LL5NXJTtI1qnMn67xk15Ymn8nyw9z1+87fga+/e1i7iXhT//Fn42eJMvin6jMf1n5LvAofFjeMl+/Grx7V18/iYiIiIj0mwghxKUjQURERERERP1ovHsnERERERERvR+c9BEREREREY0YJ31EREREREQjxkkfERERERHRiHHSR0RERERENGKc9BEREREREY0YJ30tRD++ZH5rzcZlf+qdaEiSH5ZP/2zeHURERESXVjnpi358wZdGvzj+wVg+hBAQ4hFNflq7fsIY/zg4x8ldpT+yzgm5XnG+1rcLCzwKASEEfOtsESMiIiKiGoVJ33HSYfz2GZ9/M4DAxuTLDzSZ/kU/vjQ+56Mwvv2MJ4scEbfWd/0aev0devyIiIiIaFj+L/+/Br79FAjsCSYeAHjwLB/iZ5NnWUSXFtfjb5eOBhERERHRAGh9py9dujhdbYHtCtPDMsYv+BGlx4tL7uJ3gOIlY+mTxvx7QcXljoGdeWdogE88cvFrtcQwXZ5YTH/J8s/sk9jAxsQODte3gzScOP/bXLsY/+jHl/g9rcA+fKbpMuC6/KkLX1a/sp+py/v89Y/5qRL+JfNPOf2S8KX1M/qBL9n38irvsTb1i4iIiIjOrXR55/NNvPzQ8gXEzbPyxCpduhi6c2DuIkze7RHiJ74ZgPHtT1jw8JybtDzDm7v4+5tx+CdvuQR8cQjLWx4HpoE9wRLp+3QC/ucVpsoTv8ImEzUTy7aiH1/i/Du81+Rh2XBi6i2n+PfP8vQrnIy/fg+T86b4988Q7nyLzT8qMYjw48sUq8/H/A3dX1gWJwbeEpO/fo/LN3SB1f+UB/1K+VMRvqx+AfLls9GPL1j+yp4r8LjIn1sX/iXzTzl+NeFL8z+wMZmu8Nk/fkb8/IbT5CdphYtQOX+IiIiI6BIKk754WdzjAoj++4Vf/0XA4rFi0NfGAjcW4B1mfRF+/OVhfvtHLnzLzw7E/4SFX/gvfpSFZ28O9+643HRx52K+3UBpTpPZZKL496hpBavx7WcurMVN83f3qtOvdDb+TEfgcxd3jXaZ+QebrQU/k4DSiTos+GmdMH7DZ2zxb6h2CbX8aR++EuX60tAZ8k9Ndfiy/A+ePcDyJfdDeJzcamsbiIiIiKgvlcs7jW8/8bOHr+8Xdy7m3nP85CMZJP8pvU4yaI3+wy9ssZpmntJNV9gqX73/J30nS+OWnoZAdU8KKoT/luTlFL/PC/9k3WR2LI0n0sqTZpX86RK+hPHtJ0IXxzqkc3nwOfJPRV34tfkf4b9fgHVTH5ntaonVVv45IiIiIhqG8/9On/EHbuce/voRIfpnA7h39T95EP2HX5jj92n6D3O4YfFJnerysr6f9AWwpyvADY9hd92l8yT95xbiX/VZtUQP+dPCYQmoCOFihWmvv5GhM/+6Usv/X5LHynM3hPAteEu+y0dERET0HvQy6TN++1yzhM7Atz8tbDcPeNgAt3/Uz9aChxW21p/xpM74A7fzLVYP7+XX1wLYHZ/05dKfOCyPjX7gi5YniYnFDSx4WGYmQYG9hNd0maiydvlTX78ahYTfPmsM/0z5py/9xfw38MftHFuVdwwXj8kTU078iIiIiIaunyd9i0f4VnYZZmFguLiBtfXgff6z9AmdtzwuP1vChzg8hjPw7WcI99cyvzxzMDt4LnDnzrFdTZO4/YXf3eyTlMzOjksPgIdlSf7Upv9vF3MvSf/0X/yp9UnZAo/Ch+Ud83f5y0Wo8Z3O+vxRDaaqfsnzt7hz5/KXi7D4mFdWf2vS12/+dY+fLP9Plr/W3F/Gt5+HePT6sJSIiIiIOpkIIcT5LxvAnsQ7dObH2/GOgP/+qfkdJ82iH18w/ffPzGSMiIoOO+3yPiEiIiK6qP+Tf0S/dMlbyLEgERERERFRr866kUu6tK6XJW/ndljC1+bH14nG6rhDrs7XTYmIiIiovQst7yQiIiIiIqJzOP9PNhAREREREdHZcNJHREREREQ0Ypz0ERERERERjRgnfURERERERCPGSR8REREREdGIcdJHREREREQ0Ypz0ERERERERjRgnfURERERERCPGSR8REREREdGIcdJHREREREQ0Ypz0ERERERERjRgnfURERERERCPGSR8REREREdGIcdJHREREREQ0Ypz0ERERERERjRgnfURERERERCPGSR8REREREdGIcdJHREREREQ0Ypz0ERERERERjRgnfURERERERCPGSR8REREREdGIcdJH71gAezKHG106HlkB7ImN4NLRICIiIiJKfLhJX+TOMZlMkr/i4DyCO5/AHsKIPXIxP8RzgvmgZjZxPp3m37njsMTeecLKuFgkSixw5+yx5MSPSLv69ls5lNbtl57r1whsTCZJH5T9by3xG0r/pp7/kTvHZO7i0Pt1zB8ioo9skJO+k4ZeI2O1hRACwrd6CF2XCO7XNeCEcVyFwHZYM5tafZbf8RpfsYaDpwHmi7F6gmN6WHI0Qj04x/01VCrt97vuP6afYOb+wcSnqfrp76N/66Bj/hARfWSDnPRRiNedidvr4U1oYgZWWwEhHrG4xOUjF1/XgPO0wjBzyMDqyYHpfR/Y0lPqLLAv/ISburtw+yWVTGROJjhj0TX/x54/RET96GHSly7dyP/NM6PfwM4cy3wjmy5Nma53wG6N6eH8Zu9t5cJvNUDLp+H4wKZkeUxgH9MQ2JjYweH6dpCGo/e9s6r0xflXTG8AO5f/xfLJfz5y55jYwWHpTLHs6pYPqZZfVfmXp+90+U70ssHOvMXpnFhSPorh18VPlj8HxjVuzR02L5z1jcriEb7lYdnynlapP+3bR3n9r79+en7cZlS1vbL7p5K0fVS7f6uotD9qyx+z6W++fFDWvtUyVtiKbbxkPfvfVeG/s/5NZXlsNn3T9S5/UCF/iIionPZJX2BPsZ75ybLEEI4JmE54WJ4Y2BMs4R+WLfqzNaZJp5IuTQnjkxAmnxENGvbIneP5RhzDtzwsG3a83nKK13txiIu3bNCxekt8/xQm503xeh/CUR38HwZiS3jYYT0tn9hVpc9Y3cOCh+dcp/0MDxbuVwbiTj1bPgJh2ftn3hKT75/i/A8dYP310KnXLR9SKb+68k/Tt9xnzxV4LHwdHL7uYN5et3rKJwtfFj9Z/mRyA9e3JnavYYtY0pAtHgVCB1hPW75PVFN/+m4fZdePD3/HpzBtX3ZYf212f8qu3bp9lFDJH5Xlj95yCfjt2n+l9qODd92/QZ7/xfwLHT7LIyLSRfOkL8CzB1g36SigOPAN8OyZcO6Oo4TFnQNzt4GuByLGapsbhCxumr/bYPnHgUw8kdrjTTl+6QQLgOngrsmAaPGYdHY+LJhwwrRzPy6DqU/fAneOCS8z6wviAonPj16w2VnwMwGUThRhwd8mSyeNK8ywg565i2L519aHCG/7jtGoDF+1fjbIn/3bh3z3auyM1RYidLBfttlkqar+9N8+1l8/OeofJ0ml7Wen+HRoH8+kffvP/q2TyMX3Qv4REZE+JZO+/NKWZstbFrixkJl0RHjZ7GCmb1pHb9jnnmBNMJmusasMr4XCrpeTpachUF2THg0k6TOub2F6z8k3t4VBSPhaktdTfCp+mZpOEgEACzw2/Ta/Mu7y8jdW28NTlFbLoyRqw1etn33lDw1A8/Zvt35otsSuqv6co32su76Cvu/PYVJs/9m/aTDDFZdrEhH1omTSFw8CRNvlO0C8fGgywWQSLyXM7zyZfYLVcnlSpQD2NL/rZeddzKI37AezQ5hC+oxr3JrJk7vgGV7pu29ZIV61jyrryMv/sARIhHCwxlTzLpj14Wuun7OrgW42Q+UU27/AxmS6xszXvSFIn+2jHn3fn4PSuP1n/9ZNk6eORETURA/LOwudXnbElGxusX6oHyQYV7OOS4iO8bE7fhMaPKyxs+5znfbhSWbkYq7lm9a2ytJnYHVvwXsOEDx7sO4zO1wubmAh/1MCgb2Ep3mZTmX5KZZ/5gRczU7/7frWxG7zUvmEQb18CuE3jl+dwlNuGo3AnmCy3MMJNT/h1dQ+nq99Krs/u+saf339R3n7X31hne2HipH1b8lS48P7gYF9upELERG1JzQLHVMAyP+ZjgiPnxCOWXc85lvZz5jCKX5A6fqmcBwrE37JtXPhlxy3/OIFhHk4bgnfz4TvW/G/pfEwHREmYZqqCYhTL6yKNNenL3s+DnE5Dbs670PHPE3z8agk/zJXqSy/+vLPn1deN9IyKI1mXfkohV8fv/r8KcZDvd7SO5G5x9uQ15+O7aOk/qvc37nDje+fGirtY238u7Y/Xdt/leurlV9b77t/U8i/7PVNR4R+Wf9GRERtTIQQosEcsV7kYj7d4DbMLmcJYE+W2Gd28CTqKrAn8S6C2yH+Vl+8S+rmlnWe6P2I79vXe76jS0RE46N3eWfZRiHRG/YAZnw7mzRaPA73faLI/Yo1HDxxwkdEREREA6B30rd4jH/XqbB72czX8c3p6a56xb8Bjv8z3nv8h8bAauvD8r5r/eH77gI8rGfHLfGJiEaP/RsR0dDpXd5JREREREREg6J5904iIiIiIiIaEk76iIiIiIiIRoyTPiIiIiIiohHjpI9GLIA9mQ9uoxd7YoN7GhARERHRuXDS10oEdz7B5JKD98jFPLMz2nxQM5sB5A8iuPMl9s4ThvXLCQvcOXssOfEjaixy55kdIdveQ+3bJz3XrxHYx50us/99Vpduv9WvH7lzTOYuDr3fIPKPiGiYBjnpO2nIR3b97uFHcL+uASeEEAJCiHf1I+DnKN8h/1aesXqCY3pYcjRCLVy6fbwkY7WN2zzfqvxMn/mjcv1Opp9g5v7BxKep3ksMv3/r4Az5R0T0Xg1y0jd8BlZbASEe0fnnB1sJ8bozcXs9vAlN7ML5E7n4ugacp6H+Vp6B1ZMDc3C/MUhSgX3hJ9jU3aXbb5lkonIygTmXS+dP1+tfOv+IiAZKaBcKx4QA8n+mEx4+4VuZY6Yj0iOhY56cF/+ZInO6VC58WMLPxs4xBSxfCN86iZvK9fOfyYddfn0Iy9ebPiF8YdWcU5X++PrFOPvCypVPsfzU80+WP6rpr6of5ek75m/uOiXnpWnLfd63Tj4rC78ufrL8Kcal/BgNWVz+Te/ZmEr9aN8+yut3/fXT8+M2oaptkt0flXxLwPIP51t+2taoxz/37y3al/r2uyz9FekruX5p/pS2Q92MuX9rc/0+8piIaIy0T/p8C3GnI4QoG9jmjyf/XzZwbtmQh46Z66SL4R86lfTfQkeYhU5J6foVnb7Kua3Tl+nI83/5iV11+uPBzMmg6nB+MgjLfKA4UVTJv9Nw1dMvqx8qeedb9RMt6aC4Jnyl+Knkj8gM0OjdScu5afHJ6ke39lGxfldevzgJa3f/VUraL9MJM/mX7SO6TfoOudC6/T5+4ZWfyJRcp+L6KuXXxaj7N4XrF/NXy7WIiD4Izcs7Azx7gHWTLsowcH1rYvcaZo6bcO6OizYWdw7M3QYvmpa5GastHjNrQhY3Ze9eWPC3ydI/4woz7HCIog4a05OzeEze4fNhwYQTiuT/j8tg6tO/wJ1jwns+Lk4L4gKLz49esNlZ8DMBGKt7WPDwnFvP1lf+KdaP2vyN8LbvGI3K8FXrb4P82b99yHez3jtjtYUIHeyXbTZRqqof/beP9ddPjvrbw+ZHpe1np/hYuE8DNx3cDXB9peWLQxsat397vCmll/1bryIX3wv5S0RE6komfQHszK6QzXa/WuDGQmZSEeFls4OZvkkdvWGPHdbTTPjTNXYaEnJQ2NVysvROP5NOcpI4PwqR60i7MFZbhA6OaTz3C+2S9BvXtzC95+SdpMIgJXwtKYspPhVfjOgr/xTqR9/5Wxu+av3tsX5R35q3f7v1Q7N3/Krqxznax7rrK7h4+3YRipMm9m9nMMPVMF/UJiIavJJJX9xJiMxf4w7DWyad0hTrmV/YWTL7hCr922raVj+APc3vatnbLms1Dju8iRAO1piebZdGhfQb17g1kyd3wTM88xb1+8GEeNU+6qwjrx995299+Jrr7+xqoJvNfFSK7V9gYzJdY+br3vCiz/ZRj8u1bxcQvWHfaAdI9m/9Un3qSkRERT0s7yx0etkRk3GNW3OH9UN9J2FczTQtIQlgl30TKqHv+gauZn2GL1OWfgOrewvec4Dg2YN1n9nhcnEDC/mfEgjsJTzNy7Aq069YPzInlORvsqR481L5DfThSXTkYl5bPwrhN45fncJTcHo3AnuCyXIPJ9T8BFdT+6hev7sqb9+66hp/ne1r8LDGzrpXm7RpbR9UfLD+LVmqukkDDmxM12f9RpKI6H3T/ZJg6Q5euRetS3b3lO7Q2Hb3L1M4TsXudRLl1y/fmfRk4wOFncXapi85u3L3Tln6j+dX7Y6W37mucnfKUvL8kae/vn4o5W/oCLNqk43kGNL0FzaKkIdfHz/lzVlqNnihAavZQESFvH50bB8l9Vvl/q3bSKXTzomZvDtuwFHY7Ks2/l3bF9n5JcdzmaFyfbXya2vc/ZtC/mbrh+mIsGqjHyIiOjERQgil2aGKyMV8usFtmF3OEsCeLLF3wnf1A+L0vgX2BMu9g3A7xN/qi+DOp9jc8p4gGo74vny95zu4REQ0PnqXd5ZtBBK9YQ9gxrev6YwWj8N93yhyv2INB0+c8BERERHRGeid9C0e4Vunu5fNfB3fnJ7uqlf8G+D4voGxp+/cDKy2PizvOxrvqN+rAA/r2XFLdSKi0WP/RkR0aXqXdxIREREREdGgaN69k4iIiIiIiIaEkz4iIiIiIqIR46SPiIiIiIhoxDjpo3csgD2ZD26jFntig3sSEBEREdFQcNKnVQR3PsFcxywkcjHP7GymJUxt4nROLjq5ieDOl9g7TxjWLx8scOfsseTEj0i7yJ1ndnxse4+1b7/0XL9GYB93ssz+9yDo6t/U8z9y55jMXRyuOOj8ISIatkFO+k4a+jOff3kR3K9rwAkhhIAQ4l39iPc58n/Iv3VnrJ7gmB6WHI1QD95/+9aesdrGbaJvVX6mz/xRuX4n008wc/9g4tM0/5GPXP4q+UNEROUGOemjEK87E7fXw5vQxAystgJCPKLzzy+2Ebn4ugacp6H+1p2B1ZMDc3C/EUidBfaFn3BTdxduv6SSiczJBGcsuub/2POHiKgnQrtQOCYEkP8znfDwCd/KHDMdkR4JHfPkvPjPFJnTq6+scH7omAKWL4RvlcbtJH6whH96IWGiLA1x2o/hpXmhFv9MDIRVc05V/OL0F+PrCwtlcSpPnyx/8nlccq5C+VWVf3n6IKxCAYSOWXpemrbc533r5LOy8Ovip1J/snEpP0bvWVw/mt7TscbtT6P2UV7/66+fnh+3GVVtr+z+qeRbApZ/ON/yi+2j2v17+PcW7U9d+1We/or0lVy/NH9K26l2xtC/1ed/Wfz05iER0UemfdLnW4g7HSFE2cA3fzz5/7KBdYeGvu78Q6eTHg8dYRY6zWwnfxK/pDMtH+hk05t0iE3Skemo83/5iV11/OLBysmg6XB+EqfMB4oTRVn+lIdbyIWa/JeVv0rZ+1b9REs66K0JXyl+KvkjMgMwGp20HjQtXln96dY+Ktb/yuufDuLb3J+VkvbNdMJM/p22mW0nfYdcUIlj6fnHL8TSOJR/kVZ9fZXy6+rd9m9ZivnXdSxARERHmpd3Bnj2AOsmXbRh4PrWxO41zBw34dwdF3Us7hyYuw1ezroMzoK/TZYGGleYYYc0isZqi8fMmpPFTf7djeDZAyw/95lTIdz5FOuZD7FtsARx8Zi8w+fDggknFMn/H5fB1MdvgTvHhPd8XHwWx/cmPj96wWZnwc8EYKzuYcHDc269WnX+dKNY/rX1IcLbvmM0KsNXrZ8N8mf/9jHfvRk5Y7WFCB3sl202tqiqP+dqH+vrr+VvD5sjFds/AJL7U37t+zRw08HdANdXWr44tLFx+7jHm1J62b91Ern4Xsg/IiLSp2TSF8DO7BrZbHesBW4sZCYdEV42O5jpm9bRG/bYYT3NhD9dY6chIY2kk6Akzo/i2MkXd82cLL3MifGE4zipLbdbL7HeyT/XSm38AOP6Fqb3nLxzVBiEhK8leT3Fp+KLEXX50ynu8vI3VluEDo6f0bxhQW34qvWzr/yhAWje/u3WD83e8auqP+dqHzvU377vz2FS/NKL/ZsGM1wN80VtIqJ3r2TSF3cSIvPXeEDrLZNOJf42ML/zZPYJVvq3Hci2+wHsaX7XzLJd2vaSr31NJ4TwLXhL3b8hpxA/4xq3ZvLkLniGZ96ifj+YEK9nHZXIy/+wQ54I4WCNqeZdMOvD11w/Z1cD3WyGyim2f4GNyXSNma97Q5Aht4+xvu/PQYnesG+0Q+SQy2/o/RsA5aeqRETUVA/LOwudXnbEZFzj1txh/VA/SDCuZp2WEHU9/yiAnfsmNFmuuv4q7+wWj8k34n3+eHgxfnEcV/cWvOcAwbMH6z6z/GZxAwv5nxII7CU8zcusKvNfsfwzJ+Bqdvpv17cmdpuXyicMhyfNkYv5Sf7UhN84fnUKT7lpNAJ7gslyDyfU/IRXU/uoXv+7Krs/u+saf33tPxA8rLGz7tUmbVrbj5rLjLV/S5aibtKEBTam67M/JyUiGi/dLwmW7jCWexG7ZHdP6Q6OzXfKqzpftrlGPv6mcJzTjQRO0li5u9kxHs02fKjevVMlfumGLuUbHeR3pqvcnbJU+c6s8h3+ssfry19p57Zkd7nSaOZ2nrOEX9gIQh5+ffyUN2ep2eCF3rGaDURUyOtPx/ZRUv9V7u+6jVQ67ayYybvjBh2FNrM2/l3bH9n5JcdzmaFyfbXy6+p99m8K+Zctf9MRYdVGPkRE1NhECCEazhOrRS7m0w1uw+xylgD2ZIm9E76rHxinYQvsCZZ7B6HOjQS0ieDOp9jcss4TvR/xfft6z3d0iYhofPQu7yzbKCR6wx7AjG9nk0aLx+G+TxS5X7GGgydO+IiIiIhoAPRO+haP8K3T3ctmvo5vTk931Sv+DXD8n/He4z80BlZbH5b3vcd3JtsI8LCeHbdMJyIaPfZvRERDp3d5JxEREREREQ2K5t07iYiIiIiIaEg46SMiIiIiIhoxTvqIiIiIiIhGjJO+UQtgT/r8cXiiogD2xAb3bCAiIiIajotP+iJ3jsncRdW8RHa8JmDMMzuHzQc184ngzieY9Do4juDOl9g7T8ffTIxczE+uGe+69r52VjtH/nWhHr/W9XuwFrhz9lgOtmxovOL7Tt6WDb39ICIi0u/ik75+RHC/rgEnhBACQoh39SPZOiYCH/m34sY3kWrm0uk3Vk9wTA/L9/VNwrtx6fK9tI+efiIiojZGOukL8bozcXs91AmPgdVWQIhHdP75wjKRi69rwHka62/F9Zx/nQ09fn0zsHpyYA7uNxQ1CGw+ITbX78MAACAASURBVHr3Pvr9SUREH1Evk77Azv4o6+kAKXt8ut7Vnl92vK/4Re68JL7x8sf5YfSaLg0qT1/kzjGxg2RweLq0NL5GzblpmndrTA+fy7+Xl4t/yTfe0csGO/MWbee8+fw5XS5Vd31Z+rvqNf8CGxM7OBy3g7Ss1d+LrItf2fV11m9Z+uX1O10el/+h5Sblf2Bc49bcYfMyslnf4hG+5WHZ8l1ZlfujKn/l9btkeWNgn4ZRef2y8j9Np6x9qEm9QvjV7avq/Z0PI3+s/v5sE78hvj5ARERUQmgWOqaw/OP/+xYETEeE2f/PfCB0zEbHa/mWAFDyZ4k0xPr4+cICcsfjMNPzQ+GYJfErhA9kwgwdYcIUTjEBuXDz6tJczJ9i/qb/Zp5cMI1L8Zr5NMvyW3Z95fR31Uf+JfXHdMJDOiw/LvPS/GwRv071W1F1mBX1+/DZpH4X60MmHSr1LxcPq6yE3r9j/Wh3XtX9oZK/1eUbl191+cqun5Z/IT7F81vXV1n48vZVJf3Zcqmsn6X3pzz9+fJp2TYQERFdgPYnfcZqi8fMmpnFjXX8n8jFd8+Ec1exqEZ2XGbxmLzD58OCCScUyf8fl/HUxg8L3DkmvOfj97/BswdYN/H50Qs2Owt+JgBjdQ8LHp5zXxlb8LfJ0krjCjPs8Bq2S1JegOdC/izuHJi7DY4PVCK87TteJhde0+sD/aW/K5X4W7hP34M0HbStiqW61u/OFrixkKnfEdzvHszb69wyYMsXh3skrt97vEWAevln7N9G+e6VsdpChA72yzZPearujxb520r9/Wn528PmT/n2MdExPpXhK7evsvCP9bc0/m3jhwBxd3DoTXB9a2I3jMaNiIioVsmkL7+0q9nyHZzsmjlZeoUPzHBVu+xQdrwjSfyM61uY3nOy7KcwCAtfcboYb4pPZuGf0kkiAGCBRyFyE832cX/DHjusp5n4T9clcWrPWG0ROjheI7t8T/X6faW/qzPkn1zP9Vticecc63cyyL6XbvaTTAoGkX99a97+7dYPzd7xq7o/zpW/He7P2vahK9X29WJOvzR52exgfppeNFZEREQqSiZ98SBAZP7UB+wB7Gl+10zhF79pTZ8aVJEd70IhfsY1bs3km+XgGZ703bgQr2cd9WafYKZ/x2+m5Qr5G71hDxPZcYux2ibhhnCwxjQ36u16/Uu7dPz7rN8Kkvr93Y0QvWwA565+M4uT+tEw/2ZX72wzIcX2L7Axma4x83VvCHLp+ilX3z7odu72VYG3TCblU6xn/rvaGZqIiD6unnfvDGBnn6QlS4kOmzsEdn4jC9nxvuMXRwKrewvec4Dg2YN1n9kBc3EDC/mt6AN7CU/zMkDjala+hCrZHGP9UDfISpYcbV5Ov4Ev2VwjeFjXbPpi4GrW9Poq0qcp/eyC2C3/eqRcv7vlT2X646NY3VvYbR7wsIF0h9vgYY2ddR9POhrl33ifggT2BJPlHk6o+Qm2Yv7Wl2/mSVTkYn7SvulUaB+6UmxfZenvT7LyIzspH8QSBiIiIgW6XxI8bBSA5IV4J7+RQLxxAI6bCfgNjyvxhVWxeYg0fofzUbFRSHoM+Q0RsuFX7u5w3Ggg/3caV9+qOl4SRjH+SR6WR6M+/vnrlm2CUH99tc07TjdcUNNz/mU2dzhuFtFkswaF+CnV77b5o5J+IQ514CTwkvirfKbs/uxrA59Lq9lASIX8/lDL38ryzdYvWMIv28hF0j7VbQQjbx9qUy8NX9Y+1adfFr7s/mywEU7rPCAiIrqMiRBCdJk00jAF9gTLvYNwO8zf6ovcOeKVtsNaujYU/eZPAHuyBPzik6oI7nyK1/uuT7DicDa3IZe+0XhELubTDW5z92R8L+0d1nUiIhq2kf44Oy0ez/G+TVvx0j90+C3Bces3f/pYkpwVuV+xhoMnDoJpTMo2monesAcwu+TuTERERAre0aTvdFe94t8g5zcXY2C19WF531v9iHRvAvuwAYIY6FPIcmeqfz3mT/qj2v0+AQ7wsJ4dfxKAaCwWj/Ct091VZydPzImIiIaHyzuJiIiIiIhG7B096SMiIiIiIqKmOOkjIiIiIiIaMU76iIiIiIiIRoyTPiIiIiIiohHjpI+IiIiIiGjEOOkjIiIiIiIaMU76iIiIiIiIRoyTPiIiIiIiohHjpI+IiIiIiGjEOOkjIiIiIiIaMU76iIiIiIiIRoyTPiIiIiIiohHjpI+IiIiIiGjEOOkjIiIiIiIaMU76iIiIiIiIRoyTPiIiIiIiohHjpI+IiIiIiGjEOOkjIiIiIiIaMU76iIiIiIiIRoyTPiIiIiIiohHjpI+IiIiIiGjEOOkjupgA9mQON7p0PLIC2BMbwaWjQURERETafLhJX+TOMZlMkr/i4DaCO5/A5oh3MCJ3jsnchd55UVzOp+V/ThHc+RJ75wkr42KRKLHAnbPHkhM/uoD69lk5lNb3t57r1whsTCZJH5P9by3xG0r/pZ7/J+17x/zRHb+y8zrF5yzpG4+u/X8/4welC2N+uE8nmCt+szv09ofev0FO+vq8UY3VFkIICN/qIXQagos19A1E7les4eBpWDM+AICxeoJjeliyNxik91C/21Jpn991/zD9BDP3DyY+TdVPH33/1TF/dOj1/hpA+qhvEdyva8AJ43tVCGwV+/mhtz/0/g1y0kfULwOrrYAQj1hc4vKRi69rwHlaYXhTPgAwsHpyYHrfB7b0dAAC+8JPiEnuwve3VDLQOhmAjUXX/O87fy5dP8Ze/h9diNedidvrYfburH8fnNAuFI4JAeT/TCc8fMK3MsdMR6RHQsc8OS/+M0XmdKlc+LCEX/6hkmNx3C0/nwbLLx4vhJOmwbcELP9w/WM46vEPHVPA8pP4nebdSfoy+ZcJRJio+Uzt8WL5ZfJIMX3V8UvzzxdWTdnmy+80/lXlq1J/8p8pqxs16W8Zf6twkdAxy8tNVr8Uw6+rHyr1KxuX8mMfW5y/zdqkVJf7W16/5fWn/vpq9bsmYyTtg1r9Pvx74f7sfn+Xpe/0/qm6/vGQpP3t6N33X5K4y9r3dqrbq2x7Wxc/9fsrm7/t2oHKVPTe/3fo34fY/5ekv5/61YQvrJp60f7+Lju/Wf9PpH3S51uIGy0hRFlDnD+e/H/ZwLRlZQ0dM3cTlIWfHKjsNLM3UtwRpJ9T6DSTRjrtQNKGUXXwfOh40jBDR5iZBkSaf0kcSgcy0uNJ+jMHc+lXSF99/E47iWL8i+cX64JK+SrVn7ryr0q/QvxVru1b9RMt6aC9JnxZ/ZDVr1xs0gEInTjW/3bntb6/RV0dUKw/ldeX1+9a0vah26RPnn7Z+bL2XX59lfLp4r33X/Xxk7fvXRTDzl3jdGTcon6d5m8f5d9f/9+xfx9A/y9Lf7f6lf8yqG5iVX66VXpu8Yvp9vd39/6fSPPyzgDPHmDdpIsmDFzfmti9hpnjJpy746KKxZ0Dc7fBi6ZlZMZqi8fMmo3FTfO10ZYvDmEYq3tY2ONNOX4W7tP126aDu1brRyz422Tpn3GFGXaIs1Cef8GzB1h+Lg+yao9HL9jsLPiZg3H6PTwf1rPVpU+tfC1/e9i8JFc+kYvvhfOLdJRvJaX018Q/VVufI7ztO8azMnzV+6uqfpXYv43y3bGujNUWInSwX6q/pH/U/v7Wo778pfVbEnb39q9f7dt39l+dKLTvXUw/HRerBfYEk+Sd5PB1B1Pji0vZ/NXa/xyv0E//37l/lx3vu/+XhN+5fi3wmLyDV/yrGk/lT39MPu/DggknTM8/LiPWMn7p3P/TR1Yy6QtgZ3Ydara7zwI3FuAdWpAIL5tMgxu9YY8d1tNM+NM1dhoSclDYNWmy9DQEWjMo7oN1k3nXIG6IHhdQyL94QnGcdBdJjoevJWUxxSfVhd9ayneGq7ql8L2Ub6Jr+hE36qGDYx5o3hCgNnzV/K+qX4Q27d9u/dDsHb/W97cmLP8Cxfad/ZcGkva9A+NqlnxJFeB5b8HaPyNI+rxZXxftQ1/9v4b+rVbf/b9S+F3q12nb33wMLNHx/tbS/9OHVjLpO/22o/GAwFsmlW6K9cwv7FyU/QYk/dtq2rY+gD3N75rUeRek6A37Qe1wJM+/veRrXdnxvBCvjVqNruVb9610D+Ur1TT9mR24RAgHa0w174JZH77m+2t2NdDNZvqi2P4FNibTNWa+7g0h+mwf6UTj9p39VzdNnjo2NP0Ec/eKMHoDbu9wM0ufYA0p/V117//zmvdvXeNXT1Y/ZOF3qV8dn/RJ6bm/z9r/0+j0sLyzUOmyd4txjVtzh/VD/SDYuJpJlsipx8fu+E1p8LDGzrrP3TSHJ5mRi7nOJ00y0vxLltOuv1bsuig5vriBhfxW/YG9hKe6zEexfKvPj5eybA5rVWxM13U9Unn5tq4/XdN/GhNczU7/7frWxG7zUvkEUL1+FcLvmv85haf0dBDYE0yWezih5idkmtrHi7VPirrGT1//UN6+V19Y5/2lYmz9V9P2vU34wNvLKz5dG1jcWPCeH/C6a/b0R2f90qpr/6+9f2saP9n5kvohC7/v+qVd1/u7z/6fxkrzpG+Bu+yj50nxEbSB1TaEs19WHE+DeYRvZR9TzxW3jl/gzjGxW0+T877jk5P9JiX9Udb0sbqHZUn43vIYtyX8zMQ13co+if/0Ffdn/b0kef6dPP5vdHyBR+HD8o7hL/cOwq3qTwsolm+lBR7jyMXnff+EMJe/svJNP1ZVf2Tl3zX9yYQgk/bl3kFYmBkY17cwd2ucts3y+lUfftf8z4hesBn0ttMXEthYehb8Xr497do+Xrp9kpHFT619bn9/x6rbd9n5Gu+vUu+9/1JoX2vb966m+GR6WG8+4dpAPMnxPHjmJ0yV4pdoPf7oW9f+v3v/1jV+9WT1QxZ+3/Wrq+7399n6fxqtiRBCaAstcjGfbnAbZgdEAezJEnsnVP6BSqKxC2zdHa5OEdz5FJtb3rM0JnG9fr3/6O8wEhHRR6T3SV/Zi8LRG/Z4Zy9SE/Vs8djP+346RO5XrOHgiRM+IiIiolHQO+k7WRYxOWx20P2b1eqdlbTvsNSL9x5/0svAauvD8r4PZOlQKsDDenbcMpyIiP0XEdG7p3d5JxEREREREQ2K5o1ciIiIiIiIaEg46SMiIiIiIhoxTvqIiIiIiIhGjJM+osEKYA/mN6JSAeyJDe7ZQERERPR+cNLXSvojmhz8Xlrkznv48dEhlG8Ed77E3nnq4UfAu1jgztljybpPPYjceWZHyLZ1rP39q+f6NQL7uNNl9r/P6tLtm/r1T9r3s+Rf2/yJz+sUn0HUj/eja//fz/hB6cKYZ3a+nSt+s/sx2ifq0yAnfRe7Ec90/Uun76N7D/k/5N/KM1ZPcEwPS/YGF/Ee6m9bxmoLIQSEb1V+ps/0q1y/k+knmLl/MPFpqvcSo+6/zpB/Mr2mfwDpo75FcL+uASeM2xohsFXs58fQPtFlDXLSN3wGVlsBIR7R+ecHaYAuXL6Ri69rwHka6m/lGVg9OTAH9xuDZxDYfMI/eENvn5OB1MkA61wunT9dr993/l06fy5dP6hfIV53Jm6vh9m7s/6NnNAuFI4JAeT/TCc8fMK3MsdMR6RHQsc8OS/+M0XmdKlc+LCEn42dYwpYvhC+dRI3levnP5MPu/z6EJavL3118S+9fiZ/M4EIEzWfqT1eLN9MHviWgOUfrm/56Wfz6auOX/x5y/eFVZM3xfwtxr+q/PWUb036W8bfKlwkdMzycjuEnwtMkv7T8Ovqh0r9ysal/Ni4xfnXrE1Kdbl/5fVXXj/qr69Wf2syRnL/q9Xfw7+Xtd2d7t+y9J3eH1XXPx6StK8djb7/anh9PXlc3V5l29u6+Knff9k+ol07UZmK3vv/Dv37EPv/kvT3U7+a8IVVUy/q7v/Mhxrfv6XHz552ujTtkz7fQtwoCSHKGtr88eT/ywaeLStj6Ji5Sl4M/9Bwp/8WOsIs3IBK16+46VTO7Zq+uvhL8zfpLEoHOtLjSSOeORjHJ8mH5FzTCQ/xTBv+tA7Ux++0kyjGv3h+MS9l5V92TnU+lA8aK9OvEH+Va/tW/URLOqivCV9WP1Tuj1zaKyvSuB3rd7vzWt+/oq6MFetH5fXl9beW9P7vNumTp192/nFAm5/IlFyn4voq5dPF2Psv2fVl7Xu3S6K0vSptx1rVv9P61Uf96K//79i/D6D/l6W/W/3Kf1lUN7EqP90qPbf4xbRs/HIMq/n923f7RcOneXlngGcPsG7SRREGrm9N7F7DzHETzt1x0cTizoG52+BF0zIxY7XFY2ZNxuKmbO2zBX+bLJ0zrjDDDoco6qAxPeWq4i/P3+DZAyw/l0dZtcejF2x2FvzMQWN1Dwseng/r3Szcp+vTTQd3uXDUyt/yt4fNS3LlF7n4Xji/SK38W1JKf038U7X1I8LbvmM8K8NXvf8a3B/7t1G+WyZjrLYQoYP9Uv0l/KP2968e9eUrrb+SsKvv/2GwfHFoI+L7d483pfxl/9Urhfa9i+mn42K1wJ5gkryTHL7uYGp8cSlbv7T2P8cr9NP/d+7fZcf77v8l4XeuXws8Ju/gFf+qxlP50x+Tz/uwYMIJ0/OPy4i1jF869/80ZiWTvgB2ZlehZrv3LHBjAd6hhYjwssk0qNEb9thhPc2EP11jpyEhB4VdkSZL7/Qz1k1mrX58IyvdtAqM1Rahg2Ma+3jhuyr+0vyNJxTHSXmR5Hj4WlJWU3xSXfitpfxnuKpbCq9S/m11TT/6rx+14avmf4/3x/A1b/9264dm7/i1vn81+dDlW0Zx0sT+6wwk7XsHxtUs+ZIqwPPegrV/RpD0ebO+LtqHvvp/Df1brb77f6Xwu9Sv076h+RhZouP4RUv/T6NWMuk7/TajcYfiLZNKNcV65hd2Jsp+w5H+bTVtSx/AnuZ3Reptl6Mahx2WRAgHa0zPusuhPH/3kq+1ZcfzQrw2ajW6ln/dt/KXKP+m6e+/ftSHr/n+m10NdLOZthTbv8DGZLrGzNe94UOf7SOdiN6wb7RDHfuvfqk+dW1h+gnm7hVh9Abc3uFmlj7BGtMOhd37/7zm/VvX+NWT1Q9Z+F3qV8cnfVJ67v+z9v/07vSwvLNQqbJ3g3GNW3OH9UN9J2JczTQtMQlgt3jSo+/6Bq5mfYZfDFiWv8ly2/XXil0XJccXN7CQ36o/sJfwVJdxKZZ/9fnxUpbNYa2Kjem6rkcqL//W+d81/acxKakfSRlsXiq/YT88SY9czGvrdyH8rvmfU3iK/4EE9gST5R5OqPkJmab2Ub1+XEbX+OlsP4OHNXbWvdqgR+v9o+Kj9V9N2/c24QNvL6/4dG1gcWPBe37A667Z05/e0t9V1/5fe//WNH6y8yX1QxZ+3/VLu3b3/1Gf/T+9WxreC8wp3eGqdncolR2W2u4OZgrHqdi9TqL8+uU7k568eKywM1Sn9NXGX56/J2XU6HjhZeaTl8Tjl4uPLxQXN/Opi5/CRg/ZncdMR4RVG1VUlP8x2HblW5t+hfgr1Y8kjaXFnNt5zRJ+4/Dr64fy5iw1G7yMWs0GDyp03L9xNCrqp6R+1F+/wUYrZVTu/9r4qdx/demXnV9yPJdYleurlU9b4+6/FPJX0r53k1z/EF7Slmuuf63vH5UU9N7/d+jfB9D/S9Pfa/1SVb17Z/39r+P+7bf9ouGbCCEEdIlczKcb3IbZx8UB7MkSeydU/gFKoo8usCdY7h2E2yH+Vl8Edz7F5pb3NL0ncb19vf/o7zASEdFHpHd5Z9mLwNEb9nhnL0oTXdji8RLv06iJ3K9Yw8ETJ3xERERE74LeSd/iEb51ujvQzNfxzWr1zknad1C6iLGnj5oxsNr6sLzvFe9fXkqAh/XsuGU4ERH7LyKiwdO7vJOIiIiIiIgGRfPunURERERERDQknPQRERERERGNGCd9REREREREI8ZJH9HFBLAn88Ft1GJPbHDPBSIiIqLx4KRPqwjufIL5sEbx71rkzjGZu9Cbo3E5TS46uYngzpfYO08Y1i8fLHDn7LHkxI8uIHLnmR0f29bB9ve3nuvXCOzjTpbZ/x4EXf2Xev6ftO9nyZ+29SM+r1N8Bl3+w9O1/+9n/KB0YcwzO9fOFe+pj93+0DkMctL3bm90GoT3UP5D/q07Y/UEx/SwZG8wSO+hfrdlrLYQQkD4VuVn+ky/yvU7mX6CmfsHE5+m+Y+MuXylFPKnb73m/wDSR32L4H5dA04YtyVCYKvYzw+h/aFxG+Skj6hfBlZbASEe0fnnI9uIXHxdA87TUH/rzsDqyYE5uN8IHIDAvvATYpK78P0tlQy0TgZgY9E1//vOn0vXj7GX/0cX4nVn4vZ6mL07698HJ7QLhWNCAPk/0wkPn/CtzDHTEemR0DFPzov/TJE5vfrKCueHjilg+UL4VmncTuIHS/inFxImytIQp/0YXpoXavFvFb9M/snjp3K8WH6Z9PuWgOUfrm/55emrjl/8ecv3hVVTtvn8P41/Vfkol39d2dalv2X8rcJFQscsL7dD+LnAJOk/Db+ufqjUr2xcyo99bHH+qt/TWV3ub3n9ltef+uur1e+ajJG0D2r1+/Dvhfuz+/1dlr7T+6fq+sdDkva3pdH0X7Xtq7x9b6e6vcq2t3XxU7+/sn1Eu3agMhW99/8d+vch9v8l6e+nfjXhC6umXkjvz/hDyvdPk/6fSPukz7cQN1pCiLKGOH88+f+ygWmHylp3/qFhT4+HjjALnWr2JjqJX9IYlw4UculNGsSG6ZDFT5p/tfFTi382/Dg+SeOTnGs64SGeacOflnF9/E47iWL8i+cXy1JaPiXnVOdD+aCwMv0K8Ve5tm/VT7Skg/aa8GX1Q1a/crFJByB04lj/253X+v4WdXVAsf5UXl9ev2tJ24dukz55+mXnHwe8aRzy97f8+irl09V77r8yF1bKv659fV3YuWucjoxb1K/T+qO7/Pvt/zv27wPo/2Xp71a/8l8G1U2syk+3Ss8tfjEtG78cwzqtn137fyLNyzsDPHuAdZMumjBwfWti9xpmjptw7o6LKhZ3DszdBi9nXUZmwd8mS+uMK8ywQxpFY7XFY2bNx+Imv7Y6ePYAy8995lQIdz7FeuZDbNss4auKnzz/ZPGrPR69YLOz4GcOGqt7WPDwfFjPZuE+XZ9uOrjLhaNWvpa/PWxeksvfyMX3wvlFsvLpRCn9NfFP1dbnCG/7jvGsDF/1/qqu/yf2bx/z3SIJY7WFCB3sl202vmh/f+tRX/7S+i0Ju7p9GAbLF4c2JL6/93hTyl/2X50otO9dTD8dF6sF9gST5J3k8HUHU+OLS9n6o7X/OV6hn/6/c/8uO953/y8Jv3P9WuAxeQev+Fd/v6SnPyaf92HBhBOm5x+XEWsZv3Tu/+kjK5n0BbAzuw41291ngRsL8A4tSISXTabBjd6wxw7raSb86Ro7DQlpxLrJrOWPb/TDjVjYdWmy9DInxgP246S23G69xHon/1zj+EnzTxY/yfHwtaQspvikuvBbS/nOcFU3yqgtn466ph9xox46OOaB5g0BasNXzf+6+v/hNW//duuHZu/4tb6/NWH5F9R86ZHF/ksDSfvegXE1S76kCvC8t2DtnxEkaZ71ddE+9NX/a+jfavXd/yuF36V+nbb9zcfAEh3HL1r6f/rQSiZ9p992NB4QeMuk0sXfFuZ3Lsp+A5L+bQeybX0Ae5rfdalsF6W95Gth0wkhfAveso/fYJPnnyx+suN5IV4btRpdy7fuW3e18tGrafozO3CJEA7WmGreBbM+fM331+xqoJvN9EWx/QtsTKZrzHzdG0IMuX0coegN+0Y72A25fN5D/6X6VLWF6SeYu1eE0Rtwe4ebWfoEa0w7FHbv//Oa929d41dPVj9k4XepXx2f9EnpGb+ctf+n0elheWeh0mXvFuMat+YO64f6QbBxNZMskavX9fyjAHbum5hkuer6q7wzXDwm38ho7Dil+SeLn+T44gYW8lv1B/YSnuoyLcXyrT4/XsqyOaxVsTFd1/VIxfJJg2lZ/l3TfxoTXM1O/+361sRu81L5BPDwpDxyMa/9JrAQftf8zyk8paeDwJ5gstzDCTU/IdPUPqrXn8voGj997TsQPKyxs+7VBkVa76+ay4y2/2ravrcJH3h7ecWnawOLGwve8wNed82e/uisX1p17f+1929N4yc7X1I/ZOH3Xb+0Kx+/qOuz/6fR0vJmYEbpDli1u0ep7MDUfIesqvNlm1Pk428KxzndaOAkjZW7nx3jobrhg3zzDHn+VcdP5XjhZeaTl8Tjl4uPLxRX7fhWnT+1Gzlkdx4zHRFWbURRUz5xsGXlX76zbL5+1aRfIf5KO4claSwt5tzOa5bwG4dfXz+UN2ep2eDlQ6vZAEKFjvs7jkZF/ZXUn/rrN9hopYxK+1AbP5X7sy79svNLjucSq3J9tfLp6n32Xwr5J2nfuyluPpO05ZrrV+v7QyUFvff/Hfr3AfT/0vT3Wr9UVe/eWX9/yutn1/6faCKEENAlcjGfbnAbZh8nB7AnS+ydUPkHKonGLrAnWO4dhDo3StAmgjufYnPLe5bGJK7Xr/cf/R1GIiL6iPQu7yx7UTh6wx7v7EVqop4tHvt530+HyP2KNRw8ccJHRERENAp6J32LR/jW6e5BM1/HN6vVOytp32GpF+89/qSXgdXWh+V972GzhC4CPKxnxy3DiYjYfxERvXt6l3cSERERERHRoGjevZOIiIiIiIiGhJM+IiIiIiKiEeOkj4iIiIiIaMQ46aMBC2BPvuDHoDY6ISIioo8ngD2xwT2L6L26+KQv+vEFky8/UDWulx2nev3kX4QfXyaY9Nr4RfjxZYlf7t/4xm0kSatz1N/LCezsrop9pPFy+Rf9+KI1bcPsX/rO32HXf9bf8V5ft/Pfvwvcub+wHEHeUVNxuyHfpXjYfSE0TAAAIABJREFU7evFJ300PEMYCEU//ocVXPw9whnfEPKXximwJ1jChxACQgj4lodlw7o25PppfPsZp823Lh2VwRpy+cmw/o77+kPQtX4Y3/6GO/ewHOlvlAz5/jmHsaefkz5qwcC3nwJCPKLzzy+WiX7gfyvA/fsbfyuOetBz/b2U6Af+8uZw746pWjz6sLYrPGgdn4w0/waj7/wdaPmx/tK7YODb3y7m3l/6Xz0J7ME+ISJVA29fRA98CwJI/yzh1x6HwNwVYYPjdUJ3LmD5QvjW4fy5mz87F35Z2KEr5nXXrz0eCndekX7fErD8w/UtP/3sXGSjWB2/+POW7wvrEH7+3Ob5e4xf6M7z55VcI/+Z07KtTb9i/EN3XlHm6fm5xEjrj1WIZF35q9SftmT5Gx8v5mmcV3EcyvKvWfo6pqBF/dNZ/zWkoK7+tonfSXkV6/9pHeorfVX3jW+p1Z+h3P+y/iP5UPUxiUbtY0V+1rUvdf2DrH2pz9/3UX5tsf4q5lHX8Y3k+s3qv3x8p7t/6nN8ox6/uC7oGhucpq/dfdWlfsjzRz7+qr9+u/HrSftanXqF8Kvvb/X0Z8PIh9+8/ZbFr7wMu9A+6Qvdea6QfCtfsXwLcaXIfL7JcZXr5ypz6Ip5JmOL4Rfjl1bWyopWezwpsGL808JPzp274SGeaQVKC7U+fqeD0Kb5KyufsnOq86FiwFuVfoX4p/9WXskVG52auMvKX1Z/dKiOY9wYVKfv2CDkBzrHcpDW724xl5Zfbf3qXP81Kqu/CvFr1r6dDgz6TN+hwz1JanpNef05/NuF7n+V9qn6+nJN+5/S9qEubyT9h3L7Upe/Ay6/Llh/5TqPbyTXV6n/denr2v/K9D2+aRK/qvqqw7H/aXdel/rR5Uv3+uur3T/t2xNZ+LL7Wy392XJpdn81Hb/388WC9uWdxrefeMw801zcZNaOlyzfyJEdV2bB/5ksDTR+w2ds8W8IAAGei8tH7lzMtxv8kzymD549wPJzaciqPR79g83Wgp85aHz7ExY8PB+e11v4M31Pbe4in1R5/ADA8n8eNjdplL+QlE9XSumviX8cCP771TEehfw6Usvf6vrTtwVuLMA7ZFaEH395mN/+kVvmavniUIZx/v7CfxGgnr5u6spPXr+61/9+1cVPlr4Azx5g3aQfMPDH7RzbQ+XpN33hv1ulz1XXn4403P/9tk+y9lGxfGrKS9Z/xLq1L0Muvy5Yf1W1H9/Uk5+vlL7O/W+F3sc3LeL3679e3v0yvv2ECF38Wk7wpfEa0r7qR9frJ0dl7UfH+FSPj9Xub3n4x/anzf1dnX7Z+EGPkklfAHuS3T1LZbeajOgHvmTPX3qFD3zGb7UvasmOK7BuMmtpF3gUSSFF/+EXtlhNM/GbrnDsauIJxzHTiyTHw39x2m1N8ftcMd7S+KmQ5J+0fDromn4NjG8/Ebo45mH2hVzV/K2qP2ewuHMx957jNf1JI/WndDObpFHVUn866lK/hhB/mdr0nU7a/9lsMf99mvxvv+mb/j4vGYTEbdYhDqU0famh4/7vs30CUNs+KpRPbfsi7T8S2tuXAZVfB6y/ilqPb2RxVzhfkj4t/W+tHsc3Z+l/mo+vt6uHZu/49VU/ul5fQX372tEAxqf1JOMHTUomfXEhicyfeocUwJ6uADc8nn+yS5TsWzlN39pVmsMN8+kT4mfuZwF+SSIgO54XQvELTOX41avLP5Xy0a1p+rs77FAmQrhYYZprVbvmb8+MP3A79/DXjwjRPxvAvat/GTj6D78wx7FduGT6dNSvIZePYvq8ZdKpTrH67ONnLvL9pc/47TOw/Rf58W98/32uGimd1B/dmtz/52ifZP2LvHzq25em/UNHgyq/blh/dejavtSdr5a+fvvfvsc3DeP3+beGm80pjq8DG5PpCp993RuCDLl/jcnaV73OPz6Vqh0/dNfz7p0B7Ow3Lcmj3s1hLaWN6Wqrfrwr4w/czrdYVW4FljxOXf2vYlcmyfHFDSzkt/IN7CW8kmVi7eInO79p/hXK5xDM53aP2LumP756nMebfyq/4Tl8ExL9wJfab/IM/PY5+78d8/cg/bau3S5b9flr4NufFrabBzxsgNs/6m/44GGFrfVn3Ggrp69b/NWV169Kg4u/TDF9yfKZbKea7dH7Tt/i7mQrcdn9l6s/aTQvev/nYtes/shI+5+m7UOhfZH2H/oNs/xYf5Oz9dZfmc7jh6bny9Knuf/te3zTKH79PIUBkt+pXP6CG2peYaSYPtn9oz7+6qrYvnakeH+3bj86k4wfdOn6UmBRfveauXDdwu6K2Z3N5q4Ii7svyo6rXL/27deS3XHKXmRtfTy/s9jpJjHxy53Hl0WLL2vWxU9h90pJ/knL5xBs9e5Fubid7EBUk36V+GfSUFqMuZ3xLOEXzpfv/Fpf/movZ5++0NtUef4ejsZ5eLot4GncVT5TkwfN4t/gRe6y+tW5/uuJf2X9VYif7P4p3QGsdndfnekrCT8XgEr9iV3q/q/PX5Xry7JH1r/Ul4/KztJ1/UN9+yJL3/DLr5gO1l+99bfb+Ebl+gr9Y03717X/VciAHsc3DeLXwwZvScQOfVAbOsa/cTQq8kcy/lJp3+runy4796u1T3X3tyz9svDV2m/19qNNHsj18pMNRF31tmujJvHN2UOjL4Qo3cUzvuppo9FSv/Hv3yDjXzoQyP7kRpOg+kifvvpDl/B+yo/1l8arv59roA9M4/ihDn+cnQZp8XiO9dxtxUs7ML+FZPVlK92WFKnoN/79G2j8y14Uj/7DL9S8k1RqoOkjUsL6S+MV/fgfVnDx95BehKP3T9v4od47mvSd7npU/Bvk/IBaMvDtpw/L++ts78coCezDC7Yi3ZZYW9BxPV7+chFqDjtzkd7ifxZDjv/iEb51ujvaZ7/BuxlDTh+RDOsvtfJexncBHlafjz9JQKSLjvGDgokQQugLjoiIiIiIiIbkHT3pIyIiIiIioqY46SMiIiIiIhoxTvqIiIiIiIhGjJM+IiIiIiKiEeOkj4iIiIiIaMQ46SMiIiIiIhoxTvqIiIiIiIhGjJM+IiIiIiKiEeOkj4iIiIiIaMQ46SMiIiIiIhoxTvqIiIiIiIhGjJM+IiIiIiKiEeOkj4iIiIiIaMQ46SMiIiIiIhoxTvqIiIiIiIhGjJM+IiIiIiKiEeOkj4iIiIiIaMQ46SMiIiIiIhoxTvqIiGj0JpPJpaNARER0MZz0ERERERERjRgnfURERERERCPGSV+vAtiTOdzo0vEgdQHsiY3g0tEgIiIiItKEk77eRHDnS+ydJ6yMsmMTTAY7uVCPX+TOMZm7GM+8doE7Z4/lYMuGiIiIiKiZQU76xjCRiNyvWMPB0+mMT+Hc95/+Li6dfmP1BMf0sLQ57aPhufT9QURERO/PICd9717k4usacJ5WKJ/yGVhtBYR4xOLMUVMz9Pj1zcDqyYHpfefSXMoL7AE/oSciIiIq18OkL10amP+bZ0bPgZ05lvnGOnLnmEwmmK53wG6N6eF81ffi4mvbQQC75tzc9bMDuMDGxA4Ox+0gTUs+jKr4H2LxssHOvMV1yYwvTePJtRukv/L6ivGvzcGa+JVdf7reqQXc4NpV6Y+PF+MUl/XcjVBe/hMUH9jJyg8AYFzj1txh88JZH2UsHuFbHpYt39WN3DkmdpBMHk/bRqBL+5jW/1xgp2FUXr9N+3l6f9WkfhDtMxER0YckNPMtCFh+8n+hcEwI0wkrjif/bzoizIQROubJv6mJrweYIr1kMfzQMUXm8vnjviWAOL6hYwoAwvLzaVCJv2/l01zKtwRgCb/kUF36a6+vEH9lFfErXr99WVWrDtMXFpArP+Fbmc+m5X/8TJwPx3SolF8uHlZZCdFHd7y/2p13qHOhI8xie9W6fYzrf/X9Ibu+WvvZ/n6/bPvcQ3dHRET0bmh+0hfg2QOsm3RRoIHrWxO71zBz3IRzd1w0uLhzYO420PlAxfK3h81TFjdW7pix2uIxs2axeBywcJ+ebDq4y61vVIl/hLe9hkSUUrl+Xfw7ilx8L1z/vBa4sQDvOf3uP4L73YN5e51bRmv54lDGxuoeFvZ4i4BW9W//xicFdMJYbSFCB/vl6ZM6OQv+Nln6bVxhhh3iJvI87WP19ZOjNe0nAKBjfC7bPhMREX1MJZO+/NK4Zst3TgflL5sdzE/T5H/fsMcO62km/Oka+hYIKohczLPpW3oNzr1w/C99fQDADFfN96bRZnHnwPSe4yVf0Qs2u8wgsFIyqB1E/tGwNW//duuHZu/4WTeZd2UXeBTJlxTnqp9V11dgrLYIHRzjqHv55Htun4mIiAasZNIXDwJE5k91QHDgLZNOd4r1zMc2Nyg34YT58IXYlvysQR8C2NM14ITHa/sl32TXumT8h3D99KnZhRjXuDU9fHcjRC8bwLmr32wmesMeJtLvHRrn3+yqYjMeGifF9i+wMZmuMfN1b3h06ftbzlhtk3iFcLDGVNsut2Non4mIiIaph+WdhU43O2JKNsdYP9QPEoyrWeclRGoC2E2+SVaKf7KkdfPS+hvwyvQr5l9vkqVgh81NArtiI5f0aUm7XQ7ry9/A6t7CbvOAhw1wW7ZbTjYmD2vsrPt40Nco/wpPqYkSgT3BZLmHE7b4QqyOpvbxsNIicjFv0r41ZuBq1mPwvbTPREREH5PmSd8Cd9mlPyc7qBlYbUM4+2XF8TSYR/hWdplOu53yyuNnYreeJuF+xyenyTfJavE3rm9h7tY4HXtkdjZdegA8LMvSV5l+xfxrTRa/BR7jtV3xZ75/Qlj6TfwUn0wA8PDcZvwlK//FDaydB292X/oNvrc85s0SfuaLhwb5F71gszOlk0r6YAIbS8+C38vTo67tY/pTI8n501fcN35SVq+4c+dy7yDUNvM9T/tMRET0EU2EEEJbaJGL+XSD2zA7IApgT5bYO2Fhmee4BXYyINpW/VbfuEXuHPFKrT4Gx3Gdgl980hLBnU/xet/1CUwczub2Y9VZojGbTCbQ2d0RERG9J3qf9IWvpy/NR2/YA5hdcvePC1g86n7f5T2Jl0ai4rcKuwrsJTzdO5NmRO5XrOHgiRM+IiIiIhoBvZO+k2VHk8NmB91XAJ3uqlf8G9b8ysBq68PyvmtamtrVmfIvsA8b+AjNTznTpWX9PkEN8LCeHbe0JyIiIiJ65/Qu7yQiIhogLu8kIqKPTPNGLkRERMPDCR8REX1knPQRERERERGNGCd9REREREREI8ZJ30UFsLX9BiGdRwC75Y/OExERERFdwkgnfemPjA95cB7BnS+xd55Kfsdu6PFXj1/kzkf248gL3Dl7LAdbNkRDN/T2jYiIaHwGOekb30ThVJffgvsI+VPn0uk3Vk9wTA/LYf1GCH0Ql67/RERE9P4MctLXnYHVVkCIR/T0+93dRC6+rgHnqeq34AYe/8HHr28GVk8OzMH8BiOdTWDzCVVnH739ICIiOr8eJn3p0p383zwzOk5/ZHsymeS+sY7cOSaTCabrHbBbY3o4X/29tzSM+K8wOAtsTOzgcH07SOOaDz8Xv5MBXvv0HUJ42WBn3uK6ZMZXF3/V/Km8vmL6W+dvyfWn651awA2uXZX++HgxTvGP0s/dCGnZ2UH+h+qLD+xk5QcAMK5xa+6weeGs70NZPMK3PCxbvosbuXNM7CCZPJ62HUCX9jGt37nATsOovH7Z/XGaznz7eHr/SNM/8PaZiIholIRmvgUBy0/+LxSOCWE6YcXx5P9NR4SZMELHPPm3FhERgCX8k3+L4xM6pgAgLD8fx9AxRSZ6J/HTkT7fyp+jHP/0qjX5U3t9hfQrq4hf8fpayrKgOkxfWECu/IRvZT4bpxWZz8T5cEyHSvnl4mGVlRCN3fH+aXfeoU6FjjBhivT269Y+xvW7uv7Lrp/eH4X4FM/XcT8PuH0mIiIaI81P+gI8e4B1ky7aMXB9a2L3GmaOm3Dujot6FncOzN0G53tgYuE+fY/OdHBXWF9krLZ4zPzb4sbKHNWRvghve32pyVO5fn36O4lcfC9c/7wWuLEA7zn97j+C+92DeXudW0Zr+eJQxsbqHhb2eIuAVvVz/8YnBR+QsdpChA72y9MndXIW/G2ytNu4wgw7xE3IudrHqusnR/3tYXOpfPuX6LW9vnT7TERENE4lk7780rdmy3dOB90vmx3MT9Pkf9+wxw7raSb86Rr6FgBqELmYZ9O/9DIHB56+S18fADDDVfO9abRZ3Dkwved4yVf0gs0uM4islAx6B5F/dFnN27/d+qHZO37WTeZdtgUeRfIlxLnqX9X1FRirLUIHxziee3nke26fiYiILqhk0hcPAkTmT3VAcOAtk051ivXMxzY36DbhhPnwhdiW/GzBJQSwp2vACY9x80u+6R50+i59/fSp2YUY17g1PXx3I0QvG8C5q98sInrDHibScWHj/JtdVWzGQ++TYvsX2JhM15j5ujckufT9K2estkm8QjhYY3q2XWzH0D4TERFdRg/LOwudanbElGx+sX6oHyQYV7OelxCpCmDnvknWkb5kydHmpfU35JX5o5i/vUmWih02Nwnsio1c0qcp7XZBrK8fBlb3FnabBzxsgNuy3XKyMXlYY2fdx4O+RvlXeIpAH0ZgTzBZ7uGELb4Qq6OpfTw86YpczHPtl24GrmY9Bi/VR/tMREQ0TponfQvcZZf+nOyQZmC1DeHslxXH02Ae4VvZZTiqO+Vldm5begA8LBudv8CdY2K3nibX/Y5PjlU43j19xvUtzN0ap2MPxfhX5o9i/rYmi98Cj/Har/gz3z8hLPsmHlN8MgHAw3Ob8ZesfixuYO08eLP70m/wveUxb5bwMwPDBvkXvWCzM6WTShqZwMbSs+D38nSoa/uY/pRIcv70Ffel9197xZ07l3sHofLM9320z0RERGM0EUIIbaFFLubTDW7D7IAogD1ZYu+EhWU275DG9AV2MmDaVv1W37hF7hzxSq0+Bs9xmcAvPomJ4M6neL3v+oQmDmdzO4I6TTQWY+9/iIiIOtD7pC98PX0pPnrDHsDskrt76KIxfYvHc78PMyTx0khU/FZhV4G9hKd7Z9KMyP2KNRw8cRBJNBxj73+IiIg60DvpO1l2NDlsdtD93ZfTXfWKf73Pn7Smz8Bq68Pyvrf6kWf9zpS/gX3YYEFofsqZLj3r9wlqgIf17LjlPRENQ6/9DxER0fumd3knERERERERDYrmjVyIiIiIiIhoSDjpIyIiIiIiGjFO+oiIiIiIiEaMkz7qIICt/BtbNAwB7ImNj7hnLBEREdFHNfpJX+TOB/jju+mPFPc1+O47/PQaS+ydp5Lf2TvH9btQj98w608XC9w5eywHWzb0kQzz/hpD+0xERJQ3yEnfMAcCwzGE/OnyW3VDiP8lXTr9/7+9u0dulWfDAHwz8y0FT+YtvAC8A3tSpHJ5SmhNkTJVyhTQmjKlqxQZ2IFZgIuMB/airwBs/iX+Yuzc10yKczCSEEKWjHjQd59wDA+bP/mOyPt36/ZD7Xh+iIhojv536wL8TTp2R4HdvaYfu/hnA07U9K66qY9vqLmXb2o6dp8ODot3uK/rmju11CiwoG0AX+zBV789qjvvn4mIiOqI0UXCMSCA4p/hRJdP+GZum+GIbEvkGJX9kj9D5HaXKqRfyqMt/6b9Tb98iI4wGtKPHEPA9IXwzdpjLx6jKYpJJ3Vn+r4wa/JXqZ/29K951H+mLv9q3UeOUVtvsvxVz2/j+fFNAdO/bDf97FjU24e8fuTtpy/Z8Sfby2VKzkXShtrbR235G8uepGV0ubBICJHVb7c+KSPrH67p9+kfs/ZRSKxD/6R2/Uv7Rwn2z9P2z0RERHVGn/T5JpIvVSFE3cCyuD39d+mLvW1S0S3/alqy/KV5p4OFpoHO5Us9SyNyhFH3xeybjYOK6kCiZvIkq5+29Mv1c/lcdRJVd358U2GyUJu/vPyt5yete8OJLvWcTfw6T14ayidrP2NoTjMZzDUP2uXtQ+X6KpSj64idhBAi1/767dfUPwzrHxUnfY35y6//odcD+2eF9Af2z0RERHVGfqYvwJcHmC/Zwicdz1sD4U+U227Aeb0ujFq/OjDCA77HeAAidvFeSr9aPoX8W8oTfHmA6WPfurbLhH9Mlz7qT1gixKUKFJi+uKSv795g4oTzKPXzjUNows8VPknfw1fu8S7TP16W/K1fzHIiOJ9GKEstlfNj4i0rnOGg8VT3IW0/U1vjxQS8y8mI4b57MLbPhWW0ze2jx/V1OvPZox703REicnDaaFh1Dl/b1D9M3D9K80+3tl7/aO0fW7F/bjdK/0xERFSvZtIXwNI0aLk/9XgP1UHr9yGE8d8i/ecZJ4SwF7n0FzbCEQ7kaomnpmeUFPLXd0dEDq6fKTyQn0x4rpPaBuZL7nmfNfZCSAYhMt0GJY2in5q6XuA/Y4S0x/Ar7UOmpf38gvWrA8P7SqL6pYPAN+lDd2n7mEX93bvu/V9of3SLwtjUP/zW+RvQP7X3jyrYPzeae/9MRER3rWbSl3wJitxf5y9Eb5N+aS9gL30cC4NWA05UTF+I44jBJGS/usrz13fH9P8jOLCxKI36TqP8rKsoPuMEA9m8eXwRfmY1K5i6fciM9Kt9X/oztoaHdzdG/H0AnNf2gCGV9tGx/pZPDcF4/irF/i+woC1sLH0BMWpQl1u3fzlZ/9iO/XM3c+ufiYjoXk2wvLP0pZ0fMenP2Boh7I/2QYL+tOy3hChdqnPIdgwsLOzcN6Zi/rkd8LQs/vt5ayC0//3aC8mDDxuh+VYc9PStn/ULTBRD9QfWBl6nZZJpHRy+ey8LbCx/5/MzMln7ucjuBvV7z1b7+dOxezMRHj7wcQC2z+2j/UL76FR/pbvwpCywNGibE5xo6B2ikpH6x8tKi9jFauONWMBKSUr9o+zj7J9bjdI/ExERNRj7IcHaCGaFB81rontKI7R1iFCWj9xmOCIqBTKQ5a8SubFyjHXR4eoLVxvZtBx9r7CtIa36+pGlL0QWLKTt3LQFgsjXcbVoKvm3lb8hjUIglySowTVYQpdALgrlk7afYjp946C0t+/0HFXDEiq0D7XrqzGABbVrCVCkQh48Z2D/WIhcaQq/KXpnS95t1//gyLbsn6fvn4mIiGpoQgihOD+Ui12sFgdso/xynACWtsHJiUrLPKkqhrta4Odt5DsIEwgsDZuTg+jY9K6+xxa7KyxswImmWHqXXDPwy+1grPaRpHPY8pokUnc//TMREVHZuMs76x5Ej884AVjeMjoGjW697/M8z6NIlkbC2EKy+rKXqZd0xe4/2HDwyQkfERER0Z8w7qRvvYdvVqOvLSt3LPqoRtUr//3J+cfN6NgdfZje+689P9Pul9pHYF0CFImR73IGVlLOae+gBviwl9eQ9URERET08MZd3klERERERESzMnL0TiIiIiIiIpoTTvqIiIiIiIgeGCd9RERERERED4yTPppQAEtbzSTQC6kJYPV86TwRERERzRMnfSWxu8pFfLz/wW/srqCtXPz+vCuGu9rg5HzWvMcuhruac/2ql+929TuVNV6dEzazPTf0l7F/JiIi6meWk75bfhHquyOEEBC+eYPc52GM+h/yLri/PhC69fHru084hocN34EyS7duH7fE/vlvn38iIupvlpM+unOxi3824Hw2vQtOx+4oIMQeE71/fKC5l29qOnafDozZvINxRgLrIe4wERER0d8ywaQvWxpX/FvlRo/ZS6g1TSv8Ypkt3VnYIRDaWFz2V38uLHZX0KwgHZxV827LX5Vs/8L2mgFicXv1peFjlm9hh+3lz5VPtf5l5Yu/DwiNLZ5rZnxty7MG5x9Y0Kzgst0KsrbYsf1Ilo/J6rcv2fEn28tlSl5Kv3JjZNeeFRRfVN+rfenP2BohDt+c9RWs9/BND5uez6oO6Z/k10d2/guJVdNozL+u/VSPU9Z/TXX8qtg/DysfERE9KDEy34SA6af/ioRjQBhO1LA9/bfhiCiXRuQYlf9TFTmGAHJpRo4wYIisCCr5pxsEYAq/8t/t+0eOIXKba7e3HZty+RT3L+cnK5+sjCrl883iOW8oaG39DsrfNwWQ5J21A9OvtkEliud/SFtt0pymL0ygcP6Eb+Y+mxwrcp9J6uF6HF3aV+QYhc/S1bV99dtvSP/U3D6S89/cPmT5Z+2nVJ4O/ddvHP/luNg/j14+IiJ6XCPf6Qvw5QHmS7YoTsfz1kD4E+W2G3Ber4vm1q8OjPCAcW8omPCP6dJC/QlLhEiKMDR/+f767oh9bk3g+qXm2ZPG/AaWL3bxXtq/TKl8jVTKF+N86pBkJyr5m3jLniM0HLRURXcK9TutNV5MwPu6/PYP992DsX0uLKM1fXE5x/ruDSZOOMdAr/Z1OvNOQQ19d4SIHJw21TtVclP1T0PzT7f6x0vwpW7919D82T9P3z8TEdFfVTPpKy4N67Z8pzoo/T6EMP5bpP8844QQ9iKX/sLGeAvkUuZL7lmsNfYiHQQPzV9l/9jFKl9/G6+QhL47InJwTSO//GaU+lniqS12iqR8rX7r/M01fwDS+p3Y+tWB4X0lS77ibxzC3CS3UTqonkX9zV33/i+0P7o94zdV/zQ0fwWt/dfQ/Nk/33f/TEREs1Yz6Uu+hEXuT3VAcOFt0i+dBeylj2NhUGrAiYrpC3GsCes/laH5t+0fwFrYgBNdt9VEmbtEoBMRHNhYFEaVQ8uX3dWpo1a+dvd+/oZqq99foD9ja3h4d2PE3wfAeW0PNhOfcYKB7HeXzvW3fGoIxvOoFPu/wIK2sLH0xw74c+v2Ldfefw3F/vm++2ciIpqrCZZ3lr508iOmNDiE/dE+SNCfliMsIapLWC3/8fYPYLX+UqvjaTlm+ZKlUpfgG4ElCTRSX77G+lcqX7qk9/Dde1ngsPwnpFy/2d0B8S7kAAAIhUlEQVSiflEe29u/jt2bifDwgY8DsK2LlpMvyYeN0HxLBn2d6q90l54uAkuDtjnBiXr8INZmpP7xstIidrHqcqeos1L/NTg59s8q5Ztt/0hERPM24vOBQojcg/r5v8KD5NdgE/XbE76Z/8z1QX+l/FujK7TlX7Otkn97+YvHbwjHKQZSKB5X3bGr1U9LBQgjv19TIIeG8mWa61+hfGkZqqdBpX4H5J8L7nANdtAlkItC+ST1W06nbxyU9vafBHSptvOa8qt8pq59lQJsUKolAJGKYf1TvhgK7ROm8Ouu/8b85YFg5P3XlMfP/jkzqH8mIqI/SRNCCKXZoYrYxWpxwDbKLycJYGkbnJyotMyTHllgadicHETHpnf1PbbYXSFZqTXF0qrkmoJfvtMUw10t8PM29A5Uks5hy2uWiIiI6BGMu7wz+qk+NB6fcQKwvGX0C/p16/0Uz/vci2RpJBreVThUYG3gjR2ZNCd2/8GGg09O+IiIiIgewriTvvUevlmNHras3JHooxpVr/z32POLezt+HbujD9N77/US6/H9Uv0F1iWAkRj5Lmf20uVp76AG+LCX15D6RKTg3vpnIiL6a8Zd3klERERERESzMnL0TiIiIiIiIpoTTvqIiIiIiIgeGCd9RERERERED4yTPhoggKWtZhKohdQEsHq+NJ6IiIiI7hMnfQ8udlfQVi76zsua94/hrjY4OZ8176GL4a40aLOdXKiXb2j9zc8ar84Jm9meG6K+kutaHiVz7v0TERHR+GY56Xu8gfbjGfIut79+fm99/PruE47hYcMY8nfp1u3n1v768RMREfUxy0kfzVzs4p8NOJ9N73LTsTsKCLHHRO8PH2ju5Zuajt2nA2M271C8I4HFO0R3769f/0RE9BdNMunLXiLd9FLawvbcL7axu4KmaVjYIRDaWFzSUH9uLHZX0KwgHZwl+69KOzfln0sEK63pM9nSoOwvNwAMLGhWcEnfCrLPpuWXbZeWL1u+lH8RcLVu8vsv7LBSR7Ljl+0ffx8QGls818z4snNYqRuon9/G8inWX5u28qkef1+y40+2l8uUnOuVG6P+/KtfXwX6M7ZGiMM3Z32drPfwTQ+bns+yDumf5NdPzfLGwKqm0Zh/9/6l20vHVdJv7l/Vvx/yaRS3tV//fcpXfw6JiIhmR4wscgwBwxFRw3bfhIDpF/9d+rwsDWn+yKUZOcKAIZxIMX/fFABE7iP51IVjFPdP8jOFn9vXcKJLOUw/2cdwIvl2afnS/MvHkyt/ef9yXcqOX7Z/9pmsvI1881ov5VpsOb+t5VOoP2UN5VM5/qGa0/SFWW57vllz/q+fKbS/mvLXXV+FctQ3dJK4tr9++/Xun0Rb+0naR3P7keUv71+GXQ+y9CX9q+Lx589LY/uvvf679q89+x4iIqIbmGZ5Z3hA/Q2EAF+eAef1uqhm/erAaPx8Xyb8Y7r0UH/CEiF+IrX8gy8PMH3s69b9xN84hCb83EZ99wYTHr4uPxmbeMueczMcvFbSaduuVj+mf7wET1m/mLnyuXgv7V8kSV+6PwDEOJ9aNg+icvyy+h1A6fintMaLCXiXxhTDffdgbJ8Ly2hNX1zaZ9L+TjjHQK/r63Tms1E96LsjROTgtOlzl6d//zSOpvzTrU39S2ZgeZr7L5X+VSX96/VRW/6+5UOALw8wX7Ly6XjeGgjzlUdERDRTNZO+4tKxbst3ksFQ5AD2omZ5WXzGCeF1m6ZBW9gYbwFdynzJPauxxl6kgwBp/smE5vqlXhL91JR1gf+Mkco9Sv0s8dQUW0Up/Zb9p/Zb7aPVDY8f6SDf+0qWnaWD4DdpsJx00D6L+rt33fu/0P7o9oxf7/5pJE35K2jt34eaun8drPqjzPchhPHf4qalIiIiUlEz6UsGASL3pzogyOi7Y7pvBAc2FoVRkwEnKqYvxLEm7P9U5Pmfzl2GMRF+Rh2VDa2f7K5P3/Rl+0/t1u3jxsevP2NreHh3Y8TfB8B5bQ82EZ9xgoHruLNj/S2fGoLx/FWK/V9gQVvYWPpjBwS5dfuXa+/fxzZ2/zoCb5NOyhewlz6Oczo5REREDSaO3qnjaZn/ZxI8wv5oHyToT8vBS4jqE5blny7Xsf/VB2lYv8BEMdR9YG3gjbXMULF+mvdPlmpdgnMEVjEQiSx92f7Jh5I6Onz3/oW/8fwOPf6hlI4fuN4N6hfFsb1969i9mQgPH/g4ANu6aDn5knzYCM23ZFLQqf54l6KvwNKgbU5wou4/iLUaqX+83ImKXaw23ogFrJSk2L8Ppdi/Tvb9IJUuv81PykdtAERERNMZfdJXjuy2OTmI9tdnIHbHCM5pU4x+Vl4itN7DN/PLnPpFyquS519ZvlTYvsZe+DC9TfH4jk2vLhi/fO3W2CeFT/Z7/w+Rn38mRZa+bP80lectjNBGdWyai2y38QB42NSdv8bzO/T4ZWTlUzv+65Kzbs8aXcja9/oFZujBW77V3uHxNrnrC35u4Nmh/uJvHEJDOqmkksDCxjPhT3L3bWj/mL2KI91/8YO32vbbX3v/PpRi/9r7+0Gxf2op32v5u2HsJa5EREQT0YQQ4taFoPsTWGNPeO9L7K6wsAEnmmLwH8DSNoBfvpMUw10t8PM29A5Tks5hG3FpGpGq2MVqccC2cM0n1+rJ4bVERETzxpezUy/r/W88zzNXydJINLyrcKhRlwzXiN1/sOHgk4NUInV1gWbiM04AlreM/kRERKTgjiZ91ah65b8/Of+4GR27ow/Tex9p6e1Qv9Q+AusSwEGMfJczWzo37R3UAB/28hqyn4jUVJaVapdgPny0j4iI5o7LO4mIiIiIiB7YHd3pIyIiIiIioq446SMiIiIiInpgnPQRERERERE9ME76iIiIiIiIHhgnfURERERERA/s/8YtrLHLW3U0AAAAAElFTkSuQmCC;" parent="1" vertex="1">
          <mxGeometry x="-450" y="-360" width="893" height="327" as="geometry" />
        </mxCell>
        <mxCell id="D5SYm8FrXGjHPreOWiLi-1" value="LikeDislike" style="shape=table;startSize=30;container=1;collapsible=1;childLayout=tableLayout;fixedRows=1;rowLines=0;fontStyle=1;align=center;resizeLast=1;html=1;" vertex="1" parent="1">
          <mxGeometry x="200" y="240" width="180" height="180" as="geometry" />
        </mxCell>
        <mxCell id="D5SYm8FrXGjHPreOWiLi-2" value="" style="shape=tableRow;horizontal=0;startSize=0;swimlaneHead=0;swimlaneBody=0;fillColor=none;collapsible=0;dropTarget=0;points=[[0,0.5],[1,0.5]];portConstraint=eastwest;top=0;left=0;right=0;bottom=1;" vertex="1" parent="D5SYm8FrXGjHPreOWiLi-1">
          <mxGeometry y="30" width="180" height="30" as="geometry" />
        </mxCell>
        <mxCell id="D5SYm8FrXGjHPreOWiLi-3" value="PK" style="shape=partialRectangle;connectable=0;fillColor=none;top=0;left=0;bottom=0;right=0;fontStyle=1;overflow=hidden;whiteSpace=wrap;html=1;" vertex="1" parent="D5SYm8FrXGjHPreOWiLi-2">
          <mxGeometry width="30" height="30" as="geometry">
            <mxRectangle width="30" height="30" as="alternateBounds" />
          </mxGeometry>
        </mxCell>
        <mxCell id="D5SYm8FrXGjHPreOWiLi-4" value="favorite_id" style="shape=partialRectangle;connectable=0;fillColor=none;top=0;left=0;bottom=0;right=0;align=left;spacingLeft=6;fontStyle=5;overflow=hidden;whiteSpace=wrap;html=1;" vertex="1" parent="D5SYm8FrXGjHPreOWiLi-2">
          <mxGeometry x="30" width="150" height="30" as="geometry">
            <mxRectangle width="150" height="30" as="alternateBounds" />
          </mxGeometry>
        </mxCell>
        <mxCell id="D5SYm8FrXGjHPreOWiLi-5" value="" style="shape=tableRow;horizontal=0;startSize=0;swimlaneHead=0;swimlaneBody=0;fillColor=none;collapsible=0;dropTarget=0;points=[[0,0.5],[1,0.5]];portConstraint=eastwest;top=0;left=0;right=0;bottom=0;" vertex="1" parent="D5SYm8FrXGjHPreOWiLi-1">
          <mxGeometry y="60" width="180" height="30" as="geometry" />
        </mxCell>
        <mxCell id="D5SYm8FrXGjHPreOWiLi-6" value="FK" style="shape=partialRectangle;connectable=0;fillColor=none;top=0;left=0;bottom=0;right=0;editable=1;overflow=hidden;whiteSpace=wrap;html=1;fontStyle=1" vertex="1" parent="D5SYm8FrXGjHPreOWiLi-5">
          <mxGeometry width="30" height="30" as="geometry">
            <mxRectangle width="30" height="30" as="alternateBounds" />
          </mxGeometry>
        </mxCell>
        <mxCell id="D5SYm8FrXGjHPreOWiLi-7" value="user_id" style="shape=partialRectangle;connectable=0;fillColor=none;top=0;left=0;bottom=0;right=0;align=left;spacingLeft=6;overflow=hidden;whiteSpace=wrap;html=1;fontStyle=1" vertex="1" parent="D5SYm8FrXGjHPreOWiLi-5">
          <mxGeometry x="30" width="150" height="30" as="geometry">
            <mxRectangle width="150" height="30" as="alternateBounds" />
          </mxGeometry>
        </mxCell>
        <mxCell id="D5SYm8FrXGjHPreOWiLi-8" value="" style="shape=tableRow;horizontal=0;startSize=0;swimlaneHead=0;swimlaneBody=0;fillColor=none;collapsible=0;dropTarget=0;points=[[0,0.5],[1,0.5]];portConstraint=eastwest;top=0;left=0;right=0;bottom=0;" vertex="1" parent="D5SYm8FrXGjHPreOWiLi-1">
          <mxGeometry y="90" width="180" height="30" as="geometry" />
        </mxCell>
        <mxCell id="D5SYm8FrXGjHPreOWiLi-9" value="FK" style="shape=partialRectangle;connectable=0;fillColor=none;top=0;left=0;bottom=0;right=0;editable=1;overflow=hidden;whiteSpace=wrap;html=1;fontStyle=1" vertex="1" parent="D5SYm8FrXGjHPreOWiLi-8">
          <mxGeometry width="30" height="30" as="geometry">
            <mxRectangle width="30" height="30" as="alternateBounds" />
          </mxGeometry>
        </mxCell>
        <mxCell id="D5SYm8FrXGjHPreOWiLi-10" value="entity_id" style="shape=partialRectangle;connectable=0;fillColor=none;top=0;left=0;bottom=0;right=0;align=left;spacingLeft=6;overflow=hidden;whiteSpace=wrap;html=1;fontStyle=1" vertex="1" parent="D5SYm8FrXGjHPreOWiLi-8">
          <mxGeometry x="30" width="150" height="30" as="geometry">
            <mxRectangle width="150" height="30" as="alternateBounds" />
          </mxGeometry>
        </mxCell>
        <mxCell id="D5SYm8FrXGjHPreOWiLi-14" value="" style="shape=tableRow;horizontal=0;startSize=0;swimlaneHead=0;swimlaneBody=0;fillColor=none;collapsible=0;dropTarget=0;points=[[0,0.5],[1,0.5]];portConstraint=eastwest;top=0;left=0;right=0;bottom=0;" vertex="1" parent="D5SYm8FrXGjHPreOWiLi-1">
          <mxGeometry y="120" width="180" height="30" as="geometry" />
        </mxCell>
        <mxCell id="D5SYm8FrXGjHPreOWiLi-15" value="" style="shape=partialRectangle;connectable=0;fillColor=none;top=0;left=0;bottom=0;right=0;editable=1;overflow=hidden;" vertex="1" parent="D5SYm8FrXGjHPreOWiLi-14">
          <mxGeometry width="30" height="30" as="geometry">
            <mxRectangle width="30" height="30" as="alternateBounds" />
          </mxGeometry>
        </mxCell>
        <mxCell id="D5SYm8FrXGjHPreOWiLi-16" value="entity_type" style="shape=partialRectangle;connectable=0;fillColor=none;top=0;left=0;bottom=0;right=0;align=left;spacingLeft=6;overflow=hidden;" vertex="1" parent="D5SYm8FrXGjHPreOWiLi-14">
          <mxGeometry x="30" width="150" height="30" as="geometry">
            <mxRectangle width="150" height="30" as="alternateBounds" />
          </mxGeometry>
        </mxCell>
        <mxCell id="D5SYm8FrXGjHPreOWiLi-11" value="" style="shape=tableRow;horizontal=0;startSize=0;swimlaneHead=0;swimlaneBody=0;fillColor=none;collapsible=0;dropTarget=0;points=[[0,0.5],[1,0.5]];portConstraint=eastwest;top=0;left=0;right=0;bottom=0;" vertex="1" parent="D5SYm8FrXGjHPreOWiLi-1">
          <mxGeometry y="150" width="180" height="30" as="geometry" />
        </mxCell>
        <mxCell id="D5SYm8FrXGjHPreOWiLi-12" value="" style="shape=partialRectangle;connectable=0;fillColor=none;top=0;left=0;bottom=0;right=0;editable=1;overflow=hidden;" vertex="1" parent="D5SYm8FrXGjHPreOWiLi-11">
          <mxGeometry width="30" height="30" as="geometry">
            <mxRectangle width="30" height="30" as="alternateBounds" />
          </mxGeometry>
        </mxCell>
        <mxCell id="D5SYm8FrXGjHPreOWiLi-13" value="liked: bool" style="shape=partialRectangle;connectable=0;fillColor=none;top=0;left=0;bottom=0;right=0;align=left;spacingLeft=6;overflow=hidden;" vertex="1" parent="D5SYm8FrXGjHPreOWiLi-11">
          <mxGeometry x="30" width="150" height="30" as="geometry">
            <mxRectangle width="150" height="30" as="alternateBounds" />
          </mxGeometry>
        </mxCell>
        <mxCell id="D5SYm8FrXGjHPreOWiLi-20" value="" style="edgeStyle=entityRelationEdgeStyle;fontSize=12;html=1;endArrow=ERoneToMany;rounded=0;" edge="1" parent="1" source="zLAtPKruSv_M1IxSRYuG-262" target="zLAtPKruSv_M1IxSRYuG-73">
          <mxGeometry width="100" height="100" relative="1" as="geometry">
            <mxPoint x="-215" y="525" as="sourcePoint" />
            <mxPoint x="165" y="365" as="targetPoint" />
          </mxGeometry>
        </mxCell>
        <mxCell id="D5SYm8FrXGjHPreOWiLi-21" value="" style="edgeStyle=entityRelationEdgeStyle;fontSize=12;html=1;endArrow=ERoneToMany;rounded=0;strokeColor=#000000;" edge="1" parent="1" source="zLAtPKruSv_M1IxSRYuG-80" target="zLAtPKruSv_M1IxSRYuG-73">
          <mxGeometry width="100" height="100" relative="1" as="geometry">
            <mxPoint x="-120" y="645" as="sourcePoint" />
            <mxPoint x="-215" y="555" as="targetPoint" />
          </mxGeometry>
        </mxCell>
        <mxCell id="D5SYm8FrXGjHPreOWiLi-22" value="" style="edgeStyle=entityRelationEdgeStyle;fontSize=12;html=1;endArrow=ERoneToMany;rounded=0;" edge="1" parent="1" source="zLAtPKruSv_M1IxSRYuG-294" target="zLAtPKruSv_M1IxSRYuG-73">
          <mxGeometry width="100" height="100" relative="1" as="geometry">
            <mxPoint x="350" y="535" as="sourcePoint" />
            <mxPoint x="345" y="365" as="targetPoint" />
          </mxGeometry>
        </mxCell>
      </root>
    </mxGraphModel>
  </diagram>
</mxfile>
